<svg width="870" height="768" viewBox="0 0 870 768" fill="none" xmlns="http://www.w3.org/2000/svg">
<path d="M645.269 570.1L191.792 555.2C181.596 554.875 171.853 550.299 164.388 542.328C156.923 534.357 152.249 523.539 151.241 511.9L129.352 263.9C128.769 257.262 129.395 250.557 131.19 244.21C132.985 237.864 135.91 232.014 139.78 227.032C143.649 222.049 148.379 218.042 153.67 215.266C158.96 212.489 164.696 211.002 170.514 210.9L675.268 202.9C681.27 202.807 687.221 204.189 692.718 206.953C698.216 209.717 703.134 213.799 707.141 218.924C711.148 224.05 714.151 230.1 715.949 236.667C717.747 243.235 718.297 250.168 717.563 257L688.175 527.9C686.88 539.793 681.767 550.705 673.833 558.508C665.9 566.311 655.716 570.443 645.269 570.1Z" fill="#EAF9F3"/>
<mask id="mask0_19_778" style="mask-type:luminance" maskUnits="userSpaceOnUse" x="129" y="202" width="589" height="369">
<path d="M645.269 570.1L191.792 555.2C181.596 554.875 171.853 550.299 164.388 542.328C156.923 534.357 152.249 523.539 151.241 511.9L129.352 263.9C128.769 257.262 129.395 250.557 131.19 244.21C132.985 237.864 135.91 232.014 139.78 227.032C143.649 222.049 148.379 218.042 153.67 215.266C158.96 212.489 164.696 211.002 170.514 210.9L675.268 202.9C681.27 202.807 687.221 204.189 692.718 206.953C698.216 209.717 703.134 213.799 707.141 218.924C711.148 224.05 714.151 230.1 715.949 236.667C717.747 243.235 718.297 250.168 717.563 257L688.175 527.9C686.88 539.793 681.767 550.705 673.833 558.508C665.9 566.311 655.716 570.443 645.269 570.1Z" fill="white"/>
</mask>
<g mask="url(#mask0_19_778)">
<path d="M579.948 637.4H942.293C945.763 637.4 949.09 635.819 951.543 633.006C953.996 630.193 955.375 626.378 955.375 622.4V386.8C955.375 382.822 953.996 379.006 951.543 376.193C949.09 373.38 945.763 371.8 942.293 371.8H579.948C576.479 371.8 573.152 373.38 570.699 376.193C568.245 379.006 566.867 382.822 566.867 386.8V622.4C566.867 626.378 568.245 630.193 570.699 633.006C573.152 635.819 576.479 637.4 579.948 637.4Z" stroke="#B8D8C7" stroke-width="1.8" stroke-linecap="round" stroke-linejoin="round"/>
<path d="M101.097 621.6H466.581C470.051 621.6 473.378 620.019 475.831 617.206C478.284 614.393 479.662 610.578 479.662 606.6V262.3C479.662 258.322 478.284 254.506 475.831 251.693C473.378 248.88 470.051 247.3 466.581 247.3H101.097C97.6274 247.3 94.3002 248.88 91.847 251.693C89.3938 254.506 88.0156 258.322 88.0156 262.3V606.6C88.0156 610.578 89.3938 614.393 91.847 617.206C94.3002 620.019 97.6274 621.6 101.097 621.6Z" stroke="#B8D8C7" stroke-width="1.8" stroke-linecap="round" stroke-linejoin="round"/>
<path d="M666.895 301.4H745.294V292.5H666.895C666.688 292.499 666.484 292.544 666.293 292.634C666.102 292.724 665.928 292.857 665.782 293.024C665.636 293.192 665.521 293.391 665.442 293.61C665.364 293.829 665.324 294.063 665.325 294.3V299.5C665.308 299.746 665.336 299.993 665.408 300.226C665.479 300.459 665.593 300.672 665.741 300.851C665.889 301.03 666.068 301.172 666.267 301.266C666.466 301.361 666.68 301.406 666.895 301.4Z" stroke="#B8D8C7" stroke-width="1.8" stroke-linecap="round" stroke-linejoin="round"/>
<path d="M681.108 292.5H698.811C699.733 292.503 700.624 292.117 701.316 291.417C702.007 290.717 702.45 289.75 702.561 288.7L703.956 274.3C704.014 273.696 703.96 273.084 703.797 272.505C703.635 271.927 703.369 271.394 703.015 270.941C702.661 270.488 702.228 270.126 701.744 269.877C701.261 269.629 700.736 269.501 700.206 269.5H679.713C679.183 269.502 678.659 269.632 678.176 269.881C677.693 270.129 677.261 270.492 676.907 270.944C676.554 271.397 676.287 271.929 676.124 272.507C675.962 273.085 675.907 273.696 675.963 274.3L677.358 288.7C677.456 289.756 677.895 290.732 678.589 291.435C679.283 292.139 680.182 292.518 681.108 292.5Z" stroke="#B8D8C7" stroke-width="1.8" stroke-linecap="round" stroke-linejoin="round"/>
<path d="M692.009 269.6C692.009 269.6 698.986 268.8 700.381 258C700.381 258 694.102 260.1 692.097 265.2C692.097 265.2 691.224 253.8 686.515 252.7C686.515 252.7 684.422 261.2 687.736 265.4C687.736 265.4 685.207 260.6 678.754 260.7C679.364 262.806 680.414 264.709 681.812 266.243C683.21 267.777 684.915 268.895 686.777 269.5" fill="#B8D8C7"/>
<path d="M582.741 421.5H661.402C662.371 421.492 663.298 421.047 663.984 420.261C664.669 419.475 665.057 418.412 665.064 417.3V389.9C665.057 388.789 664.669 387.725 663.984 386.939C663.298 386.153 662.371 385.708 661.402 385.7H582.741C581.771 385.708 580.844 386.153 580.158 386.939C579.473 387.725 579.085 388.789 579.078 389.9V417.3C579.085 418.412 579.473 419.475 580.158 420.261C580.844 421.047 581.771 421.492 582.741 421.5Z" stroke="#B8D8C7" stroke-width="1.8" stroke-linecap="round" stroke-linejoin="round"/>
<path d="M613 395.3H631.139C631.483 395.29 631.811 395.128 632.054 394.849C632.298 394.57 632.438 394.194 632.447 393.8C632.438 393.405 632.298 393.03 632.054 392.75C631.811 392.471 631.483 392.31 631.139 392.3H613C612.656 392.31 612.328 392.471 612.085 392.75C611.841 393.03 611.701 393.405 611.692 393.8C611.688 393.998 611.72 394.195 611.784 394.379C611.849 394.562 611.945 394.729 612.067 394.87C612.189 395.01 612.335 395.12 612.495 395.194C612.655 395.268 612.827 395.304 613 395.3Z" fill="#B8D8C7"/>
<path d="M582.741 467.3H661.402C662.371 467.292 663.299 466.847 663.984 466.061C664.67 465.275 665.058 464.211 665.064 463.1V435.7C665.058 434.589 664.67 433.525 663.984 432.739C663.299 431.953 662.371 431.508 661.402 431.5H582.741C581.772 431.508 580.844 431.953 580.159 432.739C579.473 433.525 579.085 434.589 579.078 435.7V463C579.073 463.558 579.163 464.112 579.344 464.63C579.525 465.148 579.793 465.621 580.133 466.02C580.473 466.419 580.879 466.738 581.326 466.957C581.773 467.177 582.254 467.293 582.741 467.3Z" stroke="#B8D8C7" stroke-width="1.8" stroke-linecap="round" stroke-linejoin="round"/>
<path d="M613 441.1H631.139C631.483 441.089 631.811 440.928 632.054 440.649C632.298 440.37 632.438 439.994 632.447 439.6C632.438 439.205 632.298 438.829 632.054 438.55C631.811 438.271 631.483 438.11 631.139 438.1H613C612.656 438.11 612.328 438.271 612.085 438.55C611.841 438.829 611.701 439.205 611.692 439.6C611.688 439.798 611.72 439.995 611.784 440.178C611.849 440.362 611.945 440.529 612.067 440.669C612.189 440.809 612.335 440.92 612.495 440.994C612.655 441.068 612.827 441.104 613 441.1Z" fill="#B8D8C7"/>
<path d="M178.796 499.6H257.456C258.426 499.592 259.353 499.147 260.039 498.361C260.724 497.575 261.112 496.511 261.119 495.4V468C261.112 466.888 260.724 465.825 260.039 465.039C259.353 464.253 258.426 463.808 257.456 463.8H178.796C177.826 463.808 176.899 464.253 176.213 465.039C175.528 465.825 175.14 466.888 175.133 468V495.4C175.14 496.511 175.528 497.575 176.213 498.361C176.899 499.147 177.826 499.592 178.796 499.6Z" stroke="#B8D8C7" stroke-width="1.8" stroke-linecap="round" stroke-linejoin="round"/>
<path d="M209.144 473.5H227.283C227.628 473.49 227.955 473.329 228.199 473.049C228.442 472.77 228.583 472.395 228.591 472C228.583 471.605 228.442 471.23 228.199 470.951C227.955 470.671 227.628 470.51 227.283 470.5H209.144C208.8 470.51 208.473 470.671 208.229 470.951C207.986 471.23 207.845 471.605 207.836 472C207.833 472.198 207.864 472.395 207.929 472.579C207.993 472.763 208.089 472.93 208.211 473.07C208.334 473.21 208.479 473.32 208.64 473.394C208.8 473.468 208.972 473.504 209.144 473.5Z" fill="#B8D8C7"/>
<path d="M279.784 499.6H358.445C359.414 499.592 360.341 499.147 361.027 498.361C361.712 497.575 362.1 496.511 362.107 495.4V468C362.1 466.888 361.712 465.825 361.027 465.039C360.341 464.253 359.414 463.808 358.445 463.8H279.784C278.815 463.808 277.887 464.253 277.201 465.039C276.516 465.825 276.128 466.888 276.121 468V495.4C276.128 496.511 276.516 497.575 277.201 498.361C277.887 499.147 278.815 499.592 279.784 499.6Z" stroke="#B8D8C7" stroke-width="1.8" stroke-linecap="round" stroke-linejoin="round"/>
<path d="M310.133 473.5H328.272C328.616 473.49 328.943 473.329 329.187 473.049C329.43 472.77 329.571 472.395 329.58 472C329.571 471.605 329.43 471.23 329.187 470.951C328.943 470.671 328.616 470.51 328.272 470.5H310.133C309.788 470.51 309.461 470.671 309.217 470.951C308.974 471.23 308.833 471.605 308.824 472C308.821 472.198 308.852 472.395 308.917 472.579C308.981 472.763 309.078 472.93 309.2 473.07C309.322 473.21 309.468 473.32 309.628 473.394C309.788 473.468 309.96 473.504 310.133 473.5Z" fill="#B8D8C7"/>
<path d="M683.03 421.5H761.691C762.66 421.492 763.588 421.047 764.273 420.261C764.958 419.475 765.346 418.412 765.353 417.3V389.9C765.346 388.789 764.958 387.725 764.273 386.939C763.588 386.153 762.66 385.708 761.691 385.7H683.03C682.061 385.708 681.133 386.153 680.448 386.939C679.762 387.725 679.374 388.789 679.367 389.9V417.3C679.374 418.412 679.762 419.475 680.448 420.261C681.133 421.047 682.061 421.492 683.03 421.5Z" stroke="#B8D8C7" stroke-width="1.8" stroke-linecap="round" stroke-linejoin="round"/>
<path d="M713.289 395.3H731.428C731.772 395.29 732.1 395.128 732.343 394.849C732.587 394.57 732.727 394.194 732.736 393.8C732.727 393.405 732.587 393.03 732.343 392.75C732.1 392.471 731.772 392.31 731.428 392.3H713.289C712.945 392.31 712.617 392.471 712.374 392.75C712.13 393.03 711.99 393.405 711.981 393.8C711.977 393.998 712.009 394.195 712.073 394.379C712.138 394.562 712.234 394.729 712.356 394.87C712.478 395.01 712.624 395.12 712.784 395.194C712.944 395.268 713.116 395.304 713.289 395.3Z" fill="#B8D8C7"/>
<path d="M683.03 467.3H761.691C762.66 467.292 763.588 466.847 764.273 466.061C764.959 465.275 765.347 464.211 765.354 463.1V435.7C765.347 434.589 764.959 433.525 764.273 432.739C763.588 431.953 762.66 431.508 761.691 431.5H683.03C682.061 431.508 681.133 431.953 680.448 432.739C679.762 433.525 679.374 434.589 679.367 435.7V463C679.362 463.558 679.452 464.112 679.633 464.63C679.814 465.148 680.082 465.621 680.422 466.02C680.762 466.419 681.168 466.738 681.615 466.957C682.063 467.177 682.543 467.293 683.03 467.3Z" stroke="#B8D8C7" stroke-width="1.8" stroke-linecap="round" stroke-linejoin="round"/>
<path d="M713.289 441.1H731.428C731.772 441.089 732.1 440.928 732.343 440.649C732.587 440.37 732.727 439.994 732.736 439.6C732.727 439.205 732.587 438.829 732.343 438.55C732.1 438.271 731.772 438.11 731.428 438.1H713.289C712.945 438.11 712.617 438.271 712.374 438.55C712.13 438.829 711.99 439.205 711.981 439.6C711.977 439.798 712.009 439.995 712.073 440.178C712.138 440.362 712.234 440.529 712.356 440.669C712.478 440.809 712.624 440.92 712.784 440.994C712.944 441.068 713.116 441.104 713.289 441.1Z" fill="#B8D8C7"/>
<path d="M64.2928 352.1H461.085C462.145 352.087 463.159 351.598 463.909 350.738C464.659 349.879 465.085 348.716 465.096 347.5V267.8C465.085 266.584 464.659 265.422 463.909 264.562C463.159 263.702 462.145 263.213 461.085 263.2H64.2928C63.2324 263.213 62.2186 263.702 61.4687 264.562C60.7189 265.422 60.2926 266.584 60.2813 267.8V347.5C60.2801 348.105 60.3831 348.703 60.5843 349.262C60.7855 349.821 61.0809 350.328 61.4536 350.756C61.8264 351.183 62.2691 351.522 62.7563 351.753C63.2435 351.983 63.7657 352.102 64.2928 352.1Z" stroke="#B8D8C7" stroke-width="1.8" stroke-linecap="round" stroke-linejoin="round"/>
<path d="M64.2928 451.1H461.085C462.145 451.087 463.159 450.598 463.909 449.738C464.659 448.879 465.085 447.716 465.096 446.5V366.8C465.085 365.584 464.659 364.422 463.909 363.562C463.159 362.702 462.145 362.213 461.085 362.2H64.2928C63.2324 362.213 62.2186 362.702 61.4687 363.562C60.7189 364.422 60.2926 365.584 60.2812 366.8V446.5C60.2926 447.716 60.7189 448.879 61.4687 449.738C62.2186 450.598 63.2324 451.087 64.2928 451.1Z" stroke="#B8D8C7" stroke-width="1.8" stroke-linecap="round" stroke-linejoin="round"/>
<path d="M438.438 301.819H429.805V352.119H438.438V301.819Z" stroke="#B8D8C7" stroke-width="1.8" stroke-linecap="round" stroke-linejoin="round"/>
<path d="M429.771 315.54H420.789V352.14H429.771V315.54Z" stroke="#B8D8C7" stroke-width="1.8" stroke-linecap="round" stroke-linejoin="round"/>
<path d="M178.231 400.66H169.598V450.96H178.231V400.66Z" stroke="#B8D8C7" stroke-width="1.8" stroke-linecap="round" stroke-linejoin="round"/>
<path d="M169.56 414.38H160.578V450.98H169.56V414.38Z" stroke="#B8D8C7" stroke-width="1.8" stroke-linecap="round" stroke-linejoin="round"/>
<path d="M195.751 400.66H187.117V450.96H195.751V400.66Z" stroke="#B8D8C7" stroke-width="1.8" stroke-linecap="round" stroke-linejoin="round"/>
<path d="M203.831 399.526L195.598 402.506L208.803 450.473L217.036 447.492L203.831 399.526Z" stroke="#B8D8C7" stroke-width="1.8" stroke-linecap="round" stroke-linejoin="round"/>
<path d="M187.17 414.38H178.188V450.98H187.17V414.38Z" stroke="#B8D8C7" stroke-width="1.8" stroke-linecap="round" stroke-linejoin="round"/>
<path d="M169.727 308.4L168.768 293.5C168.749 293.267 168.774 293.032 168.841 292.81C168.907 292.589 169.014 292.387 169.154 292.216C169.295 292.046 169.465 291.912 169.654 291.823C169.843 291.734 170.046 291.692 170.25 291.7H177.75C177.952 291.701 178.152 291.749 178.337 291.841C178.522 291.933 178.689 292.068 178.828 292.236C178.966 292.404 179.074 292.603 179.143 292.82C179.213 293.038 179.243 293.269 179.233 293.5L178.273 308.4C178.273 308.4 186.122 314.2 186.035 319C185.947 322.7 184.029 340.4 183.157 348.2C183.046 349.25 182.603 350.217 181.912 350.917C181.221 351.618 180.329 352.003 179.407 352H168.593C167.671 352.003 166.78 351.618 166.089 350.917C165.397 350.217 164.954 349.25 164.843 348.2C163.971 340.4 162.053 322.7 161.966 319C161.878 314.2 169.727 308.4 169.727 308.4Z" fill="#B8D8C7"/>
<path d="M727.068 545.399H-106.457" stroke="#B8D8C7" stroke-width="1.8" stroke-linecap="round" stroke-linejoin="round"/>
</g>
<path d="M346.669 451.1H274.113C272.98 451.097 271.895 450.58 271.094 449.661C270.293 448.743 269.842 447.498 269.84 446.2V433C269.842 431.701 270.293 430.456 271.094 429.538C271.895 428.619 272.98 428.102 274.113 428.1H346.669C347.802 428.102 348.887 428.619 349.688 429.538C350.489 430.456 350.94 431.701 350.942 433V446.1C350.95 446.75 350.846 447.397 350.635 448.001C350.424 448.605 350.111 449.155 349.714 449.62C349.317 450.085 348.843 450.455 348.321 450.709C347.798 450.963 347.237 451.096 346.669 451.1Z" stroke="#B8D8C7" stroke-width="1.8" stroke-linecap="round" stroke-linejoin="round"/>
<path d="M336.469 407.1H284.145V428.1H336.469V407.1Z" stroke="#B8D8C7" stroke-width="1.8" stroke-linecap="round" stroke-linejoin="round"/>
<path d="M278.039 437.3C278.761 437.3 279.347 436.628 279.347 435.8C279.347 434.971 278.761 434.3 278.039 434.3C277.316 434.3 276.73 434.971 276.73 435.8C276.73 436.628 277.316 437.3 278.039 437.3Z" fill="#B8D8C7"/>
<path d="M332.629 463H323.647L322.688 475.8H331.321L332.629 463Z" fill="#6DAFA7"/>
<path d="M322.688 475.8L311.264 624.8C311.24 625.202 311.287 625.606 311.403 625.986C311.518 626.367 311.699 626.717 311.935 627.016C312.172 627.314 312.458 627.556 312.777 627.725C313.096 627.894 313.441 627.987 313.793 628C314.419 627.999 315.024 627.734 315.49 627.254C315.957 626.774 316.253 626.114 316.322 625.4L331.321 475.8H322.688Z" fill="#B0D7C0"/>
<path d="M411.115 463H402.133L403.441 475.8H412.074L411.115 463Z" fill="#B0D7C0"/>
<path d="M403.441 475.8L418.441 625.4C418.544 626.137 418.889 626.801 419.405 627.255C419.922 627.709 420.57 627.92 421.217 627.843C421.865 627.766 422.462 627.408 422.886 626.842C423.311 626.276 423.53 625.545 423.499 624.8L412.075 475.8H403.441Z" fill="#B0D7C0"/>
<path d="M414.43 544H321.816V549.1H414.43V544Z" fill="#B0D7C0"/>
<path d="M420.36 466.7H314.404C314.002 466.703 313.604 466.614 313.233 466.439C312.862 466.264 312.524 466.007 312.24 465.681C311.957 465.356 311.732 464.969 311.579 464.543C311.427 464.117 311.349 463.661 311.352 463.2V462.9C311.349 462.44 311.427 461.984 311.579 461.558C311.732 461.132 311.957 460.745 312.24 460.42C312.524 460.094 312.862 459.836 313.233 459.661C313.604 459.487 314.002 459.398 314.404 459.4H420.448C420.849 459.398 421.247 459.487 421.618 459.661C421.99 459.836 422.327 460.094 422.611 460.42C422.895 460.745 423.12 461.132 423.272 461.558C423.425 461.984 423.502 462.44 423.5 462.9V463.2C423.486 464.141 423.148 465.037 422.56 465.693C421.972 466.349 421.181 466.711 420.36 466.7Z" fill="#22272E"/>
<path d="M583.698 404.8L505.647 399.3C504.275 399.213 502.934 398.791 501.714 398.063C500.495 397.335 499.424 396.317 498.574 395.078C497.724 393.838 497.115 392.406 496.785 390.875C496.456 389.344 496.415 387.75 496.665 386.2L526.403 195.1C526.915 191.914 528.313 189.003 530.388 186.804C532.463 184.605 535.104 183.235 537.914 182.9L616.313 174.2C617.803 174.039 619.306 174.272 620.705 174.882C622.104 175.493 623.362 176.463 624.382 177.72C625.401 178.976 626.156 180.484 626.586 182.128C627.017 183.772 627.112 185.507 626.865 187.2L597.215 392.4C596.713 396.026 595.049 399.307 592.549 401.6C590.049 403.894 586.893 405.035 583.698 404.8Z" fill="#F8AB5D"/>
<path d="M579.428 404.2L501.378 398.7C500.005 398.613 498.664 398.191 497.445 397.463C496.225 396.735 495.155 395.718 494.305 394.478C493.455 393.239 492.845 391.806 492.516 390.275C492.187 388.744 492.146 387.151 492.396 385.6L522.133 194.5C522.645 191.314 524.044 188.404 526.119 186.204C528.194 184.005 530.834 182.636 533.644 182.3L612.044 173.6C613.534 173.439 615.036 173.672 616.435 174.283C617.834 174.893 619.092 175.864 620.112 177.12C621.132 178.376 621.886 179.885 622.317 181.529C622.747 183.172 622.843 184.908 622.596 186.6L592.945 391.8C592.429 395.418 590.761 398.689 588.265 400.979C585.768 403.269 582.62 404.417 579.428 404.2Z" fill="#FFE779"/>
<mask id="mask1_19_778" style="mask-type:luminance" maskUnits="userSpaceOnUse" x="492" y="173" width="131" height="232">
<path d="M579.428 404.2L501.378 398.7C500.005 398.613 498.664 398.191 497.445 397.463C496.225 396.735 495.155 395.718 494.305 394.478C493.455 393.239 492.845 391.806 492.516 390.275C492.187 388.744 492.146 387.151 492.396 385.6L522.133 194.5C522.645 191.314 524.044 188.404 526.119 186.204C528.194 184.005 530.834 182.636 533.644 182.3L612.044 173.6C613.534 173.439 615.036 173.672 616.435 174.283C617.834 174.893 619.092 175.864 620.112 177.12C621.132 178.376 621.886 179.885 622.317 181.529C622.747 183.172 622.843 184.908 622.596 186.6L592.945 391.8C592.429 395.418 590.761 398.689 588.265 400.979C585.768 403.269 582.62 404.417 579.428 404.2Z" fill="white"/>
</mask>
<g mask="url(#mask1_19_778)">
<path d="M658.09 296.2L537.919 298.6C537.186 298.613 536.459 298.44 535.792 298.094C535.124 297.747 534.531 297.235 534.056 296.594C533.581 295.954 533.235 295.201 533.044 294.39C532.852 293.578 532.82 292.728 532.948 291.9L541.756 234.4C542.006 232.813 542.706 231.366 543.747 230.281C544.787 229.196 546.111 228.535 547.512 228.4L666.113 219.3C667.061 219.23 668.011 219.406 668.891 219.815C669.771 220.225 670.56 220.857 671.197 221.664C671.834 222.472 672.304 223.435 672.571 224.48C672.839 225.525 672.897 226.626 672.741 227.7L664.02 290.2C663.858 291.866 663.161 293.403 662.065 294.512C660.969 295.621 659.552 296.223 658.09 296.2Z" fill="#F8AB5D"/>
</g>
<mask id="mask2_19_778" style="mask-type:luminance" maskUnits="userSpaceOnUse" x="492" y="173" width="131" height="232">
<path d="M579.428 404.2L501.378 398.7C500.005 398.613 498.664 398.191 497.445 397.463C496.225 396.735 495.155 395.718 494.305 394.478C493.455 393.239 492.845 391.806 492.516 390.275C492.187 388.744 492.146 387.151 492.396 385.6L522.133 194.5C522.645 191.314 524.044 188.404 526.119 186.204C528.194 184.005 530.834 182.636 533.644 182.3L612.044 173.6C613.534 173.439 615.036 173.672 616.435 174.283C617.834 174.893 619.092 175.864 620.112 177.12C621.132 178.376 621.886 179.885 622.317 181.529C622.747 183.172 622.843 184.908 622.596 186.6L592.945 391.8C592.429 395.418 590.761 398.689 588.265 400.979C585.768 403.269 582.62 404.417 579.428 404.2Z" fill="white"/>
</mask>
<g mask="url(#mask2_19_778)">
<path d="M644.833 388.9L524.661 382.9C523.954 382.857 523.263 382.644 522.633 382.275C522.002 381.905 521.447 381.387 521.003 380.755C520.558 380.123 520.235 379.391 520.054 378.606C519.873 377.821 519.838 377.002 519.952 376.2L529.022 317.3C529.282 315.629 530.043 314.115 531.174 313.019C532.304 311.924 533.733 311.316 535.213 311.3L653.989 310.2C654.907 310.198 655.813 310.423 656.647 310.861C657.481 311.3 658.222 311.94 658.819 312.739C659.416 313.538 659.855 314.475 660.105 315.487C660.355 316.499 660.411 317.561 660.268 318.6L651.373 382.9C651.107 384.642 650.296 386.213 649.092 387.318C647.887 388.422 646.373 388.985 644.833 388.9Z" fill="#F8AB5D"/>
</g>
<path d="M520.301 206L621.112 196.8" stroke="#F8AB5D" stroke-width="1.8" stroke-linecap="round" stroke-linejoin="round"/>
<path d="M571.579 192.1L562.946 193C562.161 193.1 561.725 192.4 561.812 191.4C561.884 190.927 562.082 190.49 562.379 190.15C562.675 189.81 563.056 189.583 563.469 189.5L572.102 188.6C572.887 188.5 573.41 189.2 573.236 190.2C573.15 190.667 572.948 191.095 572.654 191.433C572.36 191.77 571.986 192.002 571.579 192.1Z" fill="#22272E"/>
<path d="M577.331 191.5C576.547 191.6 576.023 190.9 576.198 189.9C576.27 189.426 576.468 188.99 576.765 188.65C577.061 188.31 577.442 188.083 577.855 188C578.639 187.9 579.163 188.6 578.988 189.6C578.944 190.087 578.756 190.541 578.454 190.887C578.152 191.233 577.756 191.449 577.331 191.5Z" fill="#22272E"/>
<path d="M674.483 198.3L641.257 201.2C640.982 201.239 640.702 201.202 640.441 201.092C640.181 200.981 639.947 200.801 639.759 200.567C639.572 200.332 639.435 200.049 639.362 199.742C639.289 199.435 639.281 199.112 639.339 198.8L642.653 175.7C642.745 175.015 643.036 174.385 643.479 173.914C643.923 173.442 644.492 173.155 645.094 173.1L677.971 169.1C678.297 169.06 678.626 169.105 678.934 169.233C679.242 169.361 679.52 169.568 679.747 169.838C679.975 170.109 680.145 170.435 680.245 170.792C680.346 171.15 680.373 171.529 680.326 171.9L677.099 195.7C676.943 196.386 676.61 197.001 676.143 197.465C675.676 197.929 675.097 198.22 674.483 198.3Z" stroke="#6DAFA7" stroke-width="1.8" stroke-linecap="round" stroke-linejoin="round"/>
<path d="M643.523 173.7L658 184.4C658.388 184.693 658.843 184.849 659.308 184.849C659.773 184.849 660.228 184.693 660.616 184.4L679.453 169.6" stroke="#6DAFA7" stroke-width="1.8" stroke-linecap="round" stroke-linejoin="round"/>
<path d="M524.573 241.5L497.277 243.2L493.266 246.2C493.058 246.357 492.814 246.439 492.565 246.437C492.317 246.434 492.074 246.347 491.869 246.186C491.663 246.026 491.504 245.799 491.411 245.534C491.318 245.269 491.296 244.979 491.347 244.7L495.62 217.5C495.788 216.442 496.254 215.477 496.948 214.754C497.641 214.031 498.523 213.59 499.457 213.5L527.887 211C528.321 210.956 528.757 211.027 529.163 211.207C529.569 211.387 529.934 211.672 530.229 212.039C530.523 212.406 530.741 212.846 530.864 213.325C530.987 213.803 531.013 214.308 530.939 214.8L527.277 238.6C527.181 239.364 526.861 240.068 526.37 240.595C525.878 241.123 525.244 241.442 524.573 241.5Z" fill="#6DAFA7"/>
<path d="M500.941 221.5L523.964 219.6" stroke="#22272E" stroke-width="1.8" stroke-linecap="round" stroke-linejoin="round"/>
<path d="M499.895 228.2L522.917 226.4" stroke="#22272E" stroke-width="1.8" stroke-linecap="round" stroke-linejoin="round"/>
<path d="M498.848 234.8L510.882 234" stroke="#22272E" stroke-width="1.8" stroke-linecap="round" stroke-linejoin="round"/>
<path d="M651.633 290.1L531.462 292.5C530.729 292.513 530.002 292.34 529.335 291.993C528.667 291.646 528.074 291.134 527.599 290.494C527.124 289.854 526.778 289.101 526.587 288.289C526.395 287.477 526.363 286.627 526.491 285.8L535.299 228.3C535.549 226.713 536.249 225.265 537.29 224.18C538.33 223.096 539.654 222.435 541.055 222.3L659.656 213.2C660.604 213.129 661.554 213.305 662.434 213.715C663.314 214.124 664.103 214.756 664.74 215.564C665.377 216.372 665.847 217.334 666.114 218.379C666.382 219.424 666.44 220.525 666.284 221.6L657.563 284.1C657.388 285.759 656.687 287.288 655.594 288.394C654.501 289.5 653.091 290.107 651.633 290.1Z" fill="#2F2E41"/>
<path d="M562.596 246.6C561.986 250.7 558.846 254.2 555.62 254.4C552.393 254.6 550.3 251.4 550.91 247.3C551.521 243.2 554.66 239.7 557.887 239.5C561.114 239.3 563.207 242.5 562.596 246.6Z" fill="#F2B858"/>
<path d="M560.329 272.9L546.027 273.4C545.571 273.421 545.117 273.325 544.698 273.119C544.279 272.912 543.905 272.601 543.605 272.209C543.304 271.816 543.083 271.35 542.959 270.847C542.835 270.344 542.811 269.815 542.888 269.3L543.149 267.5C544.283 260.1 549.864 253.8 555.707 253.6C561.55 253.3 565.474 259.2 564.341 266.7L563.992 269.3C563.821 270.283 563.367 271.173 562.703 271.825C562.039 272.478 561.203 272.856 560.329 272.9Z" fill="#F2B858"/>
<path d="M638.725 247.3L581.779 250.3C581.499 250.323 581.217 250.272 580.957 250.15C580.697 250.028 580.464 249.838 580.279 249.596C580.093 249.354 579.958 249.066 579.886 248.754C579.813 248.442 579.805 248.116 579.861 247.8L580.471 243.4C580.584 242.68 580.902 242.025 581.376 241.536C581.849 241.047 582.452 240.753 583.087 240.7L640.121 237.3C640.403 237.27 640.687 237.317 640.95 237.437C641.213 237.557 641.447 237.746 641.635 237.99C641.822 238.234 641.956 238.525 642.026 238.839C642.096 239.154 642.101 239.483 642.039 239.8L641.342 244.6C641.257 245.333 640.947 246.008 640.467 246.502C639.988 246.997 639.37 247.28 638.725 247.3Z" fill="#6DAFA7"/>
<path d="M581.17 262.1L582.042 265.2L584.746 265.7L582.391 268.4L582.217 271.9L579.949 270.5L577.159 272.1L578.031 268.6L576.461 266.1L579.339 265.3L581.17 262.1Z" fill="#F2B858"/>
<path d="M594.252 261.6L595.211 264.7L597.915 265.2L595.56 267.9L595.473 271.4L593.031 270L590.241 271.6L591.113 268.1L589.543 265.5L592.421 264.8L594.252 261.6Z" fill="#F2B858"/>
<path d="M607.681 261L608.64 264.1L611.43 264.7L608.989 267.4L608.901 271L606.46 269.5L603.582 271.2L604.454 267.6L602.797 265L605.849 264.2L607.681 261Z" fill="#F2B858"/>
<path d="M621.373 260.4L622.332 263.6L625.21 264.1L622.768 266.9L622.681 270.5L620.152 269L617.187 270.7L618.146 267L616.402 264.5L619.455 263.7L621.373 260.4Z" fill="#F2B858"/>
<path d="M635.413 259.8L636.373 263L639.338 263.6L636.809 266.3L636.722 270L634.105 268.5L631.14 270.2L632.1 266.5L630.355 263.9L633.408 263.1L635.413 259.8Z" fill="#F2B858"/>
<path d="M638.292 382.8L518.208 376.7C517.501 376.657 516.81 376.444 516.18 376.074C515.549 375.705 514.994 375.187 514.55 374.555C514.105 373.923 513.782 373.191 513.601 372.406C513.42 371.621 513.385 370.801 513.499 370L522.568 311.1C522.829 309.429 523.59 307.915 524.721 306.819C525.851 305.724 527.28 305.116 528.76 305.1L647.536 304C648.453 303.997 649.36 304.223 650.194 304.661C651.028 305.1 651.769 305.74 652.366 306.539C652.963 307.337 653.402 308.275 653.652 309.287C653.902 310.299 653.958 311.361 653.815 312.4L644.92 376.7C644.654 378.469 643.833 380.065 642.613 381.188C641.392 382.311 639.856 382.885 638.292 382.8Z" fill="#2F2E41"/>
<path d="M549.776 331.7C549.166 335.9 546.027 339.3 542.713 339.2C539.399 339.1 537.393 335.7 538.004 331.5C538.614 327.3 541.753 324 544.98 324C548.207 324 550.474 327.5 549.776 331.7Z" fill="#F2B858"/>
<path d="M547.246 358.7L532.944 358.2C532.508 358.176 532.08 358.048 531.69 357.823C531.299 357.599 530.953 357.285 530.674 356.899C530.395 356.513 530.189 356.065 530.07 355.583C529.95 355.102 529.919 354.597 529.979 354.1L530.328 352C531.461 344.4 537.043 338.4 542.886 338.5C548.728 338.6 552.653 344.9 551.432 352.6L551.083 355.1C550.928 356.129 550.455 357.06 549.75 357.721C549.045 358.382 548.156 358.73 547.246 358.7Z" fill="#F2B858"/>
<path d="M625.735 337.9L568.788 337C568.518 336.996 568.252 336.924 568.009 336.791C567.765 336.658 567.549 336.467 567.375 336.23C567.201 335.993 567.074 335.716 567.002 335.417C566.93 335.119 566.915 334.806 566.957 334.5L567.655 329.9C567.763 329.143 568.103 328.454 568.615 327.959C569.127 327.464 569.776 327.195 570.445 327.2L627.479 327.7C627.749 327.705 628.015 327.776 628.259 327.909C628.503 328.042 628.719 328.234 628.892 328.471C629.066 328.708 629.193 328.985 629.265 329.283C629.337 329.582 629.353 329.894 629.31 330.2L628.612 335.2C628.469 335.957 628.106 336.635 627.584 337.125C627.061 337.616 626.41 337.889 625.735 337.9Z" fill="#6DAFA7"/>
<path d="M568.263 349.1L569.135 352.3L571.838 353L569.484 355.6L569.396 359.2L567.042 357.5L564.251 359L565.123 355.4L563.641 352.8L566.431 352.2L568.263 349.1Z" fill="#F2B858"/>
<path d="M581.433 349.4L582.305 352.6L585.096 353.4L582.654 356L582.567 359.6L580.125 358L577.334 359.5L578.206 355.9L576.637 353.1L579.602 352.6L581.433 349.4Z" fill="#F2B858"/>
<path d="M594.86 349.8L595.732 353L598.61 353.8L596.168 356.4L595.994 360.1L593.552 358.4L590.674 359.9L591.633 356.3L589.977 353.5L592.942 353L594.86 349.8Z" fill="#F2B858"/>
<path d="M608.553 350.1L609.512 353.4L612.39 354.2L609.861 356.9L609.774 360.6L607.245 358.9L604.28 360.4L605.239 356.7L603.582 353.9L606.634 353.3L608.553 350.1Z" fill="#63737A"/>
<path d="M622.507 350.5L623.554 353.8L626.432 354.6L623.903 357.3L623.815 361.1L621.286 359.3L618.234 360.9L619.193 357.1L617.449 354.4L620.589 353.8L622.507 350.5Z" fill="#63737A"/>
<path d="M636.197 152.3C635.732 151.719 635.129 151.309 634.461 151.12C633.794 150.931 633.093 150.972 632.446 151.238C631.8 151.504 631.236 151.984 630.826 152.616C630.416 153.249 630.178 154.006 630.142 154.793C630.105 155.58 630.273 156.361 630.623 157.04C630.973 157.718 631.489 158.262 632.108 158.605C632.727 158.948 633.421 159.073 634.101 158.965C634.782 158.858 635.42 158.522 635.935 158C636.282 157.648 636.565 157.221 636.766 156.742C636.968 156.264 637.084 155.744 637.108 155.213C637.133 154.683 637.065 154.152 636.908 153.651C636.752 153.151 636.51 152.692 636.197 152.3Z" fill="#22272E"/>
<path d="M631.49 142.9L630.88 142.1C630.389 141.48 629.796 140.977 629.135 140.62C628.474 140.264 627.758 140.061 627.028 140.024C626.298 139.987 625.569 140.116 624.883 140.403C624.197 140.691 623.568 141.132 623.031 141.7C622.49 142.263 622.051 142.943 621.74 143.701C621.429 144.459 621.253 145.28 621.22 146.117C621.188 146.954 621.3 147.79 621.551 148.576C621.802 149.363 622.187 150.085 622.682 150.7L623.293 151.5C624.004 152.415 624.512 153.513 624.775 154.7C624.95 155.6 625.211 156.7 625.473 157.7C625.584 158.199 625.805 158.657 626.115 159.029C626.425 159.401 626.813 159.676 627.242 159.827C627.671 159.978 628.127 159.999 628.566 159.889C629.004 159.78 629.411 159.542 629.746 159.2L633.67 155.1L637.595 151C637.92 150.651 638.162 150.213 638.298 149.727C638.434 149.241 638.459 148.723 638.372 148.222C638.285 147.721 638.087 147.255 637.799 146.866C637.51 146.477 637.14 146.179 636.723 146C635.851 145.6 634.979 145.3 634.194 145C633.197 144.478 632.283 143.768 631.49 142.9Z" fill="#6DAFA7"/>
<path d="M303.764 282.4L199.464 302.4C198.57 302.565 197.656 302.524 196.776 302.28C195.896 302.037 195.067 301.595 194.336 300.981C193.606 300.367 192.99 299.593 192.523 298.704C192.055 297.814 191.747 296.827 191.615 295.8L178.273 186.4C178.148 185.399 178.225 184.379 178.499 183.418C178.772 182.457 179.234 181.58 179.848 180.856C180.463 180.132 181.215 179.579 182.045 179.24C182.876 178.9 183.763 178.784 184.639 178.9L287.717 192.9C289.161 193.092 290.514 193.806 291.58 194.939C292.646 196.072 293.37 197.564 293.648 199.2L306.903 277.3C307.075 278.453 306.841 279.638 306.253 280.594C305.664 281.55 304.769 282.199 303.764 282.4Z" fill="#F8AB5D"/>
<path d="M308.124 281L203.825 301C202.931 301.165 202.017 301.125 201.137 300.881C200.256 300.637 199.427 300.196 198.697 299.582C197.967 298.968 197.35 298.194 196.883 297.304C196.416 296.415 196.108 295.428 195.976 294.4L182.546 185C182.422 184 182.499 182.98 182.772 182.019C183.045 181.057 183.507 180.181 184.122 179.457C184.737 178.732 185.488 178.179 186.319 177.84C187.149 177.501 188.036 177.385 188.912 177.5L291.991 191.5C293.435 191.693 294.787 192.407 295.853 193.54C296.92 194.672 297.644 196.164 297.921 197.8L311.176 275.9C311.28 276.466 311.282 277.05 311.183 277.617C311.084 278.184 310.886 278.722 310.6 279.198C310.315 279.675 309.949 280.08 309.523 280.39C309.098 280.7 308.622 280.907 308.124 281Z" fill="#FFE779"/>
<path d="M241.498 275.5L215.772 278.9C214.859 279.043 213.933 278.765 213.198 278.128C212.463 277.491 211.977 276.546 211.848 275.5L202.429 203.3C202.363 202.827 202.392 202.344 202.515 201.886C202.638 201.428 202.851 201.009 203.137 200.661C203.424 200.313 203.777 200.046 204.168 199.879C204.559 199.712 204.979 199.651 205.394 199.7L231.12 201.9C231.916 201.959 232.67 202.328 233.257 202.947C233.844 203.565 234.229 204.396 234.347 205.3L243.94 271.9C244.011 272.744 243.797 273.587 243.343 274.257C242.889 274.926 242.229 275.371 241.498 275.5Z" fill="#22272E"/>
<path d="M243.592 274.2L217.866 277.6C216.953 277.743 216.027 277.465 215.292 276.828C214.557 276.191 214.071 275.246 213.941 274.2L204.523 202C204.457 201.528 204.486 201.044 204.609 200.586C204.731 200.129 204.944 199.71 205.231 199.362C205.518 199.013 205.87 198.746 206.262 198.579C206.653 198.412 207.073 198.351 207.488 198.4L233.214 200.6C234.01 200.659 234.764 201.028 235.351 201.647C235.938 202.265 236.323 203.096 236.441 204L246.033 270.6C246.122 271.448 245.916 272.302 245.459 272.976C245.001 273.65 244.33 274.09 243.592 274.2Z" fill="#6DAFA7"/>
<path d="M218.215 204L222.226 204.3" stroke="#22272E" stroke-width="1.8" stroke-linecap="round" stroke-linejoin="round"/>
<path d="M224.32 204.5H224.583" stroke="#22272E" stroke-width="1.8" stroke-linecap="round" stroke-linejoin="round"/>
<path d="M205.309 207.7L237.226 209.6" stroke="#22272E" stroke-width="1.8" stroke-linecap="round" stroke-linejoin="round"/>
<path d="M213.242 268.6L245.16 265.2" stroke="#22272E" stroke-width="1.8" stroke-linecap="round" stroke-linejoin="round"/>
<path d="M278.212 213C278.648 215.8 277.514 218 275.683 217.9C273.851 217.8 271.846 215.4 271.409 212.6C270.973 209.8 272.107 207.5 274.026 207.7C275.944 207.9 277.688 210.2 278.212 213Z" fill="#2F2E41"/>
<path d="M281.616 230.9H273.767C273.098 230.905 272.448 230.636 271.937 230.141C271.425 229.646 271.085 228.957 270.976 228.2L270.715 226.6C269.93 221.3 272.11 217.2 275.511 217.3C278.912 217.4 282.226 221.6 283.011 226.7L283.273 228.5C283.341 228.787 283.35 229.089 283.298 229.381C283.246 229.673 283.135 229.947 282.974 230.18C282.812 230.414 282.605 230.601 282.369 230.726C282.134 230.851 281.875 230.91 281.616 230.9Z" fill="#2F2E41"/>
<path d="M272.456 246.7C272.892 249.7 271.671 252.199 269.666 252.399C267.66 252.599 265.567 250.2 265.131 247.1C264.695 244 265.916 241.499 268.009 241.399C270.102 241.299 271.933 243.7 272.456 246.7Z" fill="#2F2E41"/>
<path d="M275.945 265.8L267.661 266.8C266.937 266.889 266.21 266.66 265.627 266.159C265.045 265.658 264.65 264.922 264.521 264.1L264.26 262.5C263.388 256.9 265.742 252.1 269.492 251.8C273.068 251.5 276.643 255.7 277.515 261.1L277.777 262.9C277.843 263.231 277.846 263.574 277.787 263.906C277.728 264.238 277.608 264.552 277.434 264.826C277.261 265.101 277.039 265.33 276.782 265.498C276.525 265.666 276.24 265.769 275.945 265.8Z" fill="#2F2E41"/>
<path d="M293.737 245.5C294.173 248.3 293.214 250.6 291.47 250.8C289.726 251 287.894 248.7 287.458 245.9C287.022 243.1 288.069 240.7 289.813 240.6C291.557 240.5 293.301 242.8 293.737 245.5Z" fill="#2F2E41"/>
<path d="M296.877 263.3L290.424 264.1C289.71 264.186 288.994 263.954 288.426 263.451C287.857 262.948 287.48 262.214 287.371 261.4L287.197 260.1C286.325 254.9 288.331 250.5 291.47 250.2C294.61 250 297.749 253.9 298.534 258.9L298.795 260.4C298.875 261.076 298.718 261.76 298.358 262.304C297.999 262.847 297.466 263.205 296.877 263.3Z" fill="#2F2E41"/>
<path d="M248.215 232.8L256.238 232.7" stroke="#3F3D56" stroke-width="1.8" stroke-linecap="round" stroke-linejoin="round"/>
<path d="M256.064 236.9L260.599 233.5C260.723 233.415 260.825 233.293 260.892 233.146C260.96 233 260.991 232.835 260.982 232.669C260.973 232.503 260.924 232.344 260.841 232.208C260.758 232.072 260.644 231.966 260.511 231.9L254.93 228.6C254.798 228.508 254.645 228.464 254.49 228.474C254.336 228.484 254.188 228.547 254.065 228.655C253.943 228.763 253.851 228.911 253.803 229.08C253.756 229.248 253.753 229.429 253.796 229.6L254.843 236.3C254.856 236.454 254.906 236.602 254.986 236.728C255.066 236.853 255.174 236.951 255.299 237.013C255.424 237.074 255.56 237.096 255.695 237.076C255.829 237.056 255.957 236.995 256.064 236.9Z" fill="#3F3D56"/>
<path d="M456.289 574.5C456.289 574.5 457.51 588.2 458.556 595.3C458.818 597.4 465.707 599.8 471.986 598.3C479.748 596.5 480.184 591.4 480.184 591.4C480.184 591.4 478.701 567.4 478.527 565.7C478.352 564 457.423 568.5 456.289 574.5Z" fill="#B28D93"/>
<path d="M478.266 583.4C472.249 586.9 464.4 587 459.778 586.7C458.752 586.638 457.779 586.162 457.029 585.357C456.279 584.552 455.801 583.47 455.679 582.3C455.243 577.9 454.895 574.5 454.895 574.5C456.115 567.8 479.574 562.8 479.749 564.7C479.836 565.6 480.272 572.1 480.708 578.6C480.747 579.585 480.537 580.562 480.104 581.413C479.671 582.264 479.033 582.954 478.266 583.4Z" fill="#22272E"/>
<path d="M458.381 594.5C458.381 594.5 457.248 596.2 457.771 600.1C458.294 604 457.684 621.5 459.602 623.6C461.521 625.7 483.148 624.2 492.828 621.7C503.206 619 509.746 614.3 510.444 611.8C511.49 608.2 510.618 607.7 499.892 604.1C489.165 600.5 483.758 595.4 481.491 592.5C481.04 591.896 480.488 591.402 479.867 591.048C479.246 590.695 478.57 590.489 477.878 590.442C477.185 590.395 476.492 590.509 475.84 590.777C475.187 591.044 474.588 591.46 474.079 592C472.77 593.3 471.201 598 468.323 598C461.434 597.9 459.079 594.1 458.381 594.5Z" fill="#2F2E41"/>
<path d="M495.967 601.4C495.967 601.4 487.944 602.2 482.102 611.8" stroke="white" stroke-width="1.8" stroke-linecap="round" stroke-linejoin="round"/>
<path d="M489.34 597.9C486.82 598.393 484.416 599.483 482.284 601.102C480.151 602.72 478.337 604.832 476.957 607.3" stroke="white" stroke-width="1.8" stroke-linecap="round" stroke-linejoin="round"/>
<path d="M383.386 574.8C383.386 574.8 382.165 594.1 381.99 595C381.816 595.9 383.211 600.6 391.496 601.9C399.781 603.2 402.571 597.4 402.571 597.4C402.571 597.4 405.536 579.7 406.059 576.5C406.583 573.3 386.089 571.5 383.386 574.8Z" fill="#B28D93"/>
<path d="M407.627 576.1C407.365 577.4 406.755 581 406.144 585C405.979 586.068 405.516 587.046 404.824 587.786C404.131 588.525 403.248 588.987 402.307 589.1C396.281 589.876 390.181 588.985 384.517 586.5C383.61 586.109 382.839 585.39 382.32 584.452C381.801 583.514 381.562 582.408 381.639 581.3C381.901 577.3 382.075 574 382.075 574C385.04 570.3 408.237 572.5 407.627 576.1Z" fill="#22272E"/>
<path d="M381.989 594.3C381.989 594.3 379.896 594.9 379.721 599C379.547 603.1 375.448 621.8 375.623 623.8C375.797 625.8 376.756 628.3 389.925 628.1C403.093 627.9 410.418 628.7 412.86 626.3C415.302 623.9 411.988 618.4 409.546 613.4C407.104 608.4 403.442 600.9 402.831 596.8C401.943 597.512 400.975 598.084 399.953 598.5C399.168 598.6 398.384 594.3 393.5 594.3C387.832 594.3 385.826 597.9 385.303 597.8C383.857 597.147 382.675 595.899 381.989 594.3Z" fill="#2F2E41"/>
<path d="M385.566 606.4C385.566 606.4 395.334 602.2 403.967 606.4" stroke="white" stroke-width="1.8" stroke-linecap="round" stroke-linejoin="round"/>
<path d="M384.867 612.1C384.867 612.1 396.466 607.9 406.058 612.1" stroke="white" stroke-width="1.8" stroke-linecap="round" stroke-linejoin="round"/>
<path d="M405.537 395.6C405.537 395.6 424.025 401.4 446.175 410.4C467.105 418.9 475.302 423.9 477.57 440.6C479.837 457.3 477.046 516.8 479.837 532.5C482.628 548.2 485.854 559.3 483.151 567.4C482.693 568.97 481.963 570.418 481.003 571.655C480.044 572.893 478.876 573.894 477.57 574.6C477.57 574.6 466.32 580.1 456.291 577.5C454.383 576.819 452.613 575.707 451.086 574.23C449.558 572.753 448.304 570.941 447.396 568.9C444.082 561.8 447.309 538.9 444.78 521.8C442.251 504.7 439.46 476.5 436.408 457.6C433.356 438.7 383.648 431.1 377.282 416.2C370.915 401.3 374.229 388.2 374.229 388.2C374.229 388.2 399.955 387.6 405.537 395.6Z" fill="#2F2E41"/>
<path d="M392.63 414.6C392.602 412.085 392.398 409.577 392.02 407.1" stroke="#63737A" stroke-width="1.8" stroke-linecap="round" stroke-linejoin="round"/>
<path d="M478.355 451.6C477.272 451.92 476.159 452.088 475.041 452.1C467.367 452.1 460.827 444.7 460.478 435.7C460.353 432.802 460.921 429.92 462.12 427.365C463.318 424.81 465.103 422.678 467.28 421.2C473.297 425.8 476.349 431.5 477.57 440.7C477.919 443.3 478.181 447.1 478.355 451.6Z" stroke="#63737A" stroke-width="1.8" stroke-linecap="round" stroke-linejoin="round"/>
<path d="M319.463 396.9C319.463 396.9 318.765 404.3 319.375 421.2C319.986 437.7 330.974 459.3 354.52 459.6C378.066 459.9 391.932 459.6 391.932 459.6C391.932 459.6 390.1 469.2 389.228 493.7C388.356 518.2 381.903 535 377.717 550.3C374.054 563.7 374.054 573.1 382.513 577.6C390.237 580.692 398.414 582.017 406.582 581.5C406.582 581.5 413.036 580.9 414.954 563.2C416.873 545.5 425.07 511.3 431.785 489.3C438.5 467.3 443.82 439.1 433.442 429.5C423.065 419.9 387.746 414.1 385.914 413.1C384.083 412.1 384.345 398.6 382.164 390.3C380.072 381.8 326.526 380.2 319.463 396.9Z" fill="#2F2E41"/>
<path d="M431.871 489.2C438.586 467.3 443.905 439 433.528 429.4C423.15 419.8 387.831 414 386 413" stroke="#63737A" stroke-width="1.8" stroke-linecap="round" stroke-linejoin="round"/>
<path d="M386.088 413C386.088 413 377.018 411 373.355 411.7" stroke="#63737A" stroke-width="1.8" stroke-linecap="round" stroke-linejoin="round"/>
<path d="M321.031 432.1C324.083 430.6 328.618 426.9 331.409 417.8" stroke="#63737A" stroke-width="1.8" stroke-linecap="round" stroke-linejoin="round"/>
<path d="M391.93 459.6C392.942 456.484 394.483 453.629 396.464 451.2" stroke="#63737A" stroke-width="1.8" stroke-linecap="round" stroke-linejoin="round"/>
<path d="M439.285 452.4C438.195 454.973 436.498 457.143 434.386 458.663C432.274 460.184 429.831 460.993 427.337 461C419.663 461 413.123 453.6 412.774 444.6C412.656 442.496 412.916 440.386 413.537 438.401C414.159 436.416 415.129 434.599 416.388 433.062C417.647 431.524 419.168 430.299 420.856 429.463C422.545 428.627 424.365 428.197 426.204 428.2C428.11 428.208 429.995 428.655 431.747 429.514C433.5 430.373 435.085 431.626 436.407 433.2C438.936 437.9 439.721 444.7 439.285 452.4Z" stroke="#63737A" stroke-width="1.8" stroke-linecap="round" stroke-linejoin="round"/>
<path d="M386.089 587.2C385.898 586.145 385.898 585.055 386.089 584" stroke="#63737A" stroke-width="1.8" stroke-linecap="round" stroke-linejoin="round"/>
<path d="M393.676 589.1C394.125 587.993 394.419 586.812 394.548 585.6" stroke="#63737A" stroke-width="1.8" stroke-linecap="round" stroke-linejoin="round"/>
<path d="M401.699 589.1C402.237 588.141 402.648 587.097 402.92 586" stroke="#63737A" stroke-width="1.8" stroke-linecap="round" stroke-linejoin="round"/>
<path d="M461 586.7C460.506 585.387 460.154 584.01 459.953 582.6" stroke="#63737A" stroke-width="1.8" stroke-linecap="round" stroke-linejoin="round"/>
<path d="M470.681 586.1C470.829 584.594 470.74 583.07 470.418 581.6" stroke="#63737A" stroke-width="1.8" stroke-linecap="round" stroke-linejoin="round"/>
<path d="M479.224 582.6C479.484 581.178 479.454 579.706 479.137 578.3" stroke="#63737A" stroke-width="1.8" stroke-linecap="round" stroke-linejoin="round"/>
<path d="M387.659 281.1C387.659 281.1 396.292 282.8 410.071 286.5C418.595 288.699 427.21 290.401 435.884 291.6C435.884 291.6 450.099 284.3 466.93 276C476.59 271.134 486.456 266.828 496.493 263.1C496.493 263.1 500.854 263.5 503.383 270.8C504.356 273.591 504.744 276.605 504.516 279.6C504.46 280.367 504.249 281.11 503.902 281.769C503.554 282.428 503.078 282.986 502.51 283.4C498.673 286.3 488.121 294.4 471.552 307.5C450.448 324.2 441.64 325.4 431.175 324.9C419.577 324.3 390.798 318.9 390.798 318.9C390.798 318.9 383.037 317.2 380.333 301.3C377.804 285.4 384.955 280.5 387.659 281.1Z" fill="#F2B858"/>
<path d="M435.71 324.9C435.71 324.9 432.309 323.8 434.576 319.4C436.844 315 445.739 311.5 451.233 314.1C455.855 316.3 453.064 320 453.064 320" stroke="#F8AB5D" stroke-width="1.8" stroke-linecap="round" stroke-linejoin="round"/>
<path d="M491.087 265.2C490.644 268.997 491.19 272.859 492.657 276.3C495.535 282.8 499.023 284.9 500.069 285.3" stroke="#F8AB5D" stroke-width="1.8" stroke-linecap="round" stroke-linejoin="round"/>
<path d="M496.493 263.1C496.493 263.1 495.795 269.2 497.975 274.3C498.784 276.371 499.939 278.24 501.377 279.8C501.804 280.25 502.333 280.554 502.903 280.678C503.473 280.801 504.062 280.74 504.603 280.5C505.625 279.951 506.713 279.581 507.83 279.4C509.748 279.2 514.981 280.5 518.033 278C521.085 275.5 521.783 275.2 522.219 275.1C522.655 275 527.277 275 528.062 274.6C529.632 273.8 529.98 270.8 529.196 269.6C528.498 268.6 523.963 268.5 523.091 267C522.219 265.5 523.004 263.9 527.887 262.5C532.771 261.1 541.405 258 541.143 255.6C540.881 253.2 536.259 255 530.329 255.7C524.399 256.4 521.609 256.6 519.167 255.5C516.725 254.4 513.411 254.5 509.661 256.6C507.219 258 504.603 259.2 499.981 261.5C498.863 262.152 497.695 262.688 496.493 263.1Z" fill="#B28D93"/>
<path d="M528.671 262.3C529.165 263.912 529.459 265.595 529.543 267.3C529.63 269.5 526.839 275.5 524.834 276.6C522.828 277.7 521.52 276.5 520.648 274.9C519.776 273.3 517.508 263.8 521.869 262.7C526.229 261.6 527.799 261.4 528.671 262.3Z" fill="#B28D93"/>
<path d="M529.109 269.6C528.411 268.6 523.877 268.5 523.005 267C522.132 265.5 522.917 263.9 527.801 262.5C532.684 261.1 541.318 258 541.056 255.6" stroke="#896068" stroke-width="1.8" stroke-linecap="round" stroke-linejoin="round"/>
<path d="M521.173 256.2C519.532 256.1 517.888 256.268 516.289 256.7" stroke="#896068" stroke-width="1.8" stroke-linecap="round" stroke-linejoin="round"/>
<path d="M517.945 278C520.998 275.4 521.695 275.2 522.131 275.1C522.567 275 527.189 275 527.974 274.6" stroke="#896068" stroke-width="1.8" stroke-linecap="round" stroke-linejoin="round"/>
<path d="M355.566 270.5C355.566 270.5 356.526 266.4 363.066 266.8C369.607 267.2 379.112 271.1 379.723 276.7C380.333 282.3 358.619 285.4 355.566 270.5Z" fill="#22272E"/>
<path d="M402.221 315.8C401.349 284.2 387.745 281.1 387.745 281.1C376.573 279.211 365.286 278.375 353.995 278.6C335.507 279 321.031 282.6 313.531 294.8C306.904 305.6 292.427 353.5 296.177 366.8C299.317 378 308.561 380.7 325.13 377.4C324.083 384.4 322.862 389.9 322.862 389.9C329.839 395.7 345.275 401.4 368.385 401.4C388.965 401.4 399.343 393.7 399.343 393.7C398.558 386.6 403.006 347.4 402.221 315.8Z" fill="#F2B858"/>
<path d="M379.897 288.5C380.856 295.2 381.292 309.8 382.862 323.6C384.432 337.4 384.693 357.7 384.781 377.1C384.823 388.719 385.846 400.306 387.833 411.7C399.606 407.2 407.978 396.6 407.978 396.6C407.978 396.6 409.111 395 406.059 382.1C403.007 369.2 402.222 323.6 402.222 323.6C402.687 316.013 402.335 308.389 401.175 300.9C399.257 290 392.804 282.3 387.833 280.5C385.13 279.501 382.3 279.028 379.461 279.1C379.461 279.1 379.635 284.2 379.897 288.5Z" fill="#6DAFA7"/>
<path d="M356.961 259.1C356.961 259.1 356.438 270.5 356.438 276.1C356.438 285.9 368.123 296 372.484 296C379.547 296 380.768 286.5 380.419 282.3C380.071 278.1 379.983 265.9 380.071 265.6C380.158 265.3 361.321 253.7 356.961 259.1Z" fill="#B28D93"/>
<path d="M361.148 265.1C362.457 277.5 371.09 284 380.421 283.6C380.439 283.197 380.41 282.793 380.334 282.4C380.16 280.7 380.072 277.7 380.072 274.8C373.357 278.8 365.073 272.3 361.148 265.1Z" fill="#896068"/>
<path d="M367.337 293.8C366.727 305.7 370.564 335.3 370.564 368.9C370.564 402.5 366.291 416.3 366.291 416.3C330.274 421.2 311.961 403.8 311.961 403.8C311.961 403.8 313.356 400.3 316.409 390.6C319.461 380.9 319.461 369 319.461 369C319.461 369 323.647 325.1 322.164 315.3C320.682 305.5 315.188 292.5 315.188 292.5C315.188 292.5 319.548 285.2 331.234 281.5C340.303 278.6 350.158 278.3 354.082 278.3L353.995 278.8C358.006 289.1 367.337 293.8 367.337 293.8Z" fill="#6DAFA7"/>
<path d="M336.207 383.6C342.074 385.507 348.165 386.351 354.259 386.1C355.392 386 356.264 386.8 356.177 387.8V387.9C356.072 388.345 355.846 388.739 355.533 389.027C355.219 389.315 354.834 389.48 354.433 389.5C350.509 389.8 340.393 389.1 335.16 386.7C334.781 386.568 334.457 386.282 334.248 385.896C334.039 385.509 333.961 385.049 334.027 384.6C334.201 383.7 335.247 383.3 336.207 383.6Z" fill="#EAF9F3"/>
<path d="M393.325 383.3C395.069 382.8 398.993 381.8 403.267 380.1C403.877 379.9 404.575 380.5 404.749 381.5V381.6C404.85 381.908 404.854 382.248 404.758 382.559C404.662 382.87 404.474 383.133 404.226 383.3C402.22 384.2 397.162 386.3 393.935 386.5C393.629 386.458 393.341 386.312 393.107 386.08C392.874 385.848 392.707 385.542 392.627 385.2C392.453 384.3 392.714 383.5 393.325 383.3Z" fill="#EAF9F3"/>
<path d="M394.2 333.8H393.764C387.136 337.9 383.299 337.7 382.863 333.9C383.561 333.4 384.171 332.9 384.782 332.4C386.236 331.325 387.869 330.61 389.578 330.3C390.849 330.055 392.129 329.888 393.415 329.8C393.415 329.8 395.334 329.3 395.683 330.1C396.032 330.7 395.944 332.2 394.2 333.8Z" fill="#B28D93"/>
<path d="M438.151 368.9L388.618 368.8C388.251 368.803 387.888 368.716 387.552 368.547C387.216 368.378 386.915 368.13 386.669 367.818C386.422 367.507 386.235 367.14 386.12 366.741C386.005 366.341 385.965 365.919 386.001 365.5L389.751 321.5C389.831 320.55 390.231 319.674 390.867 319.057C391.502 318.441 392.322 318.133 393.152 318.2L442.86 322C443.413 322.061 443.922 322.367 444.281 322.853C444.639 323.339 444.818 323.966 444.779 324.6L440.767 366.2C440.702 366.943 440.398 367.631 439.914 368.13C439.431 368.63 438.802 368.904 438.151 368.9Z" fill="#2F2E41"/>
<path d="M421.232 326.9C421.258 326.753 421.255 326.602 421.223 326.456C421.191 326.311 421.131 326.175 421.047 326.06C420.964 325.945 420.858 325.853 420.739 325.79C420.62 325.728 420.49 325.697 420.36 325.7C420.069 325.716 419.791 325.842 419.569 326.06C419.348 326.277 419.197 326.573 419.139 326.9C419.113 327.047 419.116 327.199 419.147 327.345C419.179 327.49 419.239 327.626 419.323 327.741C419.407 327.856 419.512 327.948 419.631 328.01C419.75 328.073 419.88 328.103 420.011 328.1C420.297 328.069 420.569 327.937 420.787 327.722C421.006 327.508 421.161 327.22 421.232 326.9Z" fill="#63737A"/>
<path d="M376.496 358C376.405 358.432 376.222 358.832 375.964 359.164C375.705 359.496 375.378 359.748 375.014 359.9C362.175 366.185 348.903 371.236 335.334 375C331.672 376 328.183 376.9 325.044 377.5C308.387 380.7 299.231 378.1 296.091 366.9C292.341 353.6 306.818 305.8 313.445 294.9C313.978 294.023 314.561 293.188 315.19 292.4C324.346 284.2 333.852 292.2 335.945 305.6C336.991 312.7 334.375 320.5 332.195 329.4C330.625 335.8 326.614 346.1 326.614 346.1L372.31 340.7C372.718 340.627 373.136 340.681 373.52 340.857C373.903 341.033 374.239 341.324 374.49 341.7C378.676 347 377.281 354.9 376.496 358Z" fill="#F2B858"/>
<path d="M326.613 346C326.613 346 317.717 347.2 314.316 349.8" stroke="#F8AB5D" stroke-width="1.8" stroke-linecap="round" stroke-linejoin="round"/>
<path d="M366.116 341.3C366.116 341.3 363.674 344.5 364.633 351.2C365.68 358.5 368.471 360.5 370.389 362" stroke="#F8AB5D" stroke-width="1.8" stroke-linecap="round" stroke-linejoin="round"/>
<path d="M296.09 367.8C296.09 367.8 295.131 361.8 302.718 361.7C310.305 361.6 318.851 373.6 313.531 378.8" stroke="#F8AB5D" stroke-width="1.8" stroke-linecap="round" stroke-linejoin="round"/>
<path d="M411.292 348.8C410.769 350.7 406.757 348.9 403.705 347.9C399.781 346.6 397.164 345.6 396.903 345.5C399.441 347.067 401.862 348.874 404.141 350.9C407.28 353.6 409.635 356.5 408.588 357.9C407.542 359.3 401.263 355.1 401.263 355.1C401.263 355.1 403.53 356.9 404.054 359C404.577 361.1 401.525 360.4 395.769 356.4C395.769 356.4 393.589 356.5 389.49 358.6C385.391 360.7 379.287 359.7 377.368 359C376.604 358.741 375.811 358.606 375.014 358.6C374.575 358.594 374.142 358.475 373.749 358.249C373.357 358.024 373.014 357.699 372.746 357.3C371.121 355.044 370.093 352.303 369.781 349.4C369.433 345.7 370.217 343.6 370.828 342.6C371.109 342.079 371.541 341.689 372.049 341.5C373.099 341.091 374.119 340.59 375.101 340C375.886 339.5 378.764 337.1 381.642 334.9C382.063 334.59 382.47 334.256 382.862 333.9C386.495 334.113 390.135 334.08 393.763 333.8H394.199C397.949 333.5 407.978 334.5 409.025 335.8C410.071 337.1 408.588 338.8 403.879 338.7C401.341 338.693 398.806 338.893 396.292 339.3C398.892 340.047 401.43 341.051 403.879 342.3C407.542 344.2 411.902 346.9 411.292 348.8Z" fill="#B28D93"/>
<path d="M396.989 345.5C396.989 345.5 395.594 344.9 394.547 344.6C393.919 344.419 393.276 344.319 392.629 344.3" stroke="#896068" stroke-width="1.8" stroke-linecap="round" stroke-linejoin="round"/>
<path d="M401.262 355.1C401.262 355.1 398.385 351.7 395.071 350.9C393.588 350.6 392.629 350.5 392.629 350.5" stroke="#896068" stroke-width="1.8" stroke-linecap="round" stroke-linejoin="round"/>
<path d="M396.379 339.3C395.119 339.243 393.858 339.378 392.629 339.7" stroke="#896068" stroke-width="1.8" stroke-linecap="round" stroke-linejoin="round"/>
<path d="M388.792 334C388.091 334.011 387.39 333.944 386.699 333.8" stroke="#896068" stroke-width="1.8" stroke-linecap="round" stroke-linejoin="round"/>
<path d="M379.636 283.5C379.548 282.169 379.548 280.832 379.636 279.5C379.748 278.573 379.777 277.635 379.723 276.7V274.4C379.723 274.4 380.246 275.7 381.293 277.8C382.339 279.9 380.769 289.1 379.985 290.2L379.636 283.5Z" fill="#3F3D56"/>
<path d="M389.141 239C388.804 245.094 388.804 251.206 389.141 257.3C389.37 261.875 388.27 266.407 386.014 270.189C383.757 273.97 380.471 276.788 376.67 278.2C370.827 280.3 359.839 275.1 357.223 260.2C354.607 245.3 348.938 228.5 364.112 222.4C379.286 216.3 389.315 224.8 389.141 239Z" fill="#B28D93"/>
<path d="M356.349 249.5C356.349 249.5 358.181 248.2 358.791 243.8C358.827 243.309 358.964 242.835 359.191 242.418C359.419 242 359.73 241.651 360.099 241.4C360.972 240.964 361.739 240.289 362.332 239.435C362.924 238.581 363.326 237.573 363.5 236.5C363.675 234.6 364.372 233.2 366.116 234.3C379.808 243.4 388.877 235.1 388.877 235.1L388.965 240.8C394.284 239.1 397.511 231.1 396.465 225.2C395.156 217.8 392.715 219.2 389.662 213.6C386.61 208 381.029 204.1 373.878 207C366.727 209.9 364.111 211.2 358.529 211.1C352.948 211 347.629 213.7 347.193 219.7C346.757 225.7 341.96 227.5 341.088 233.1C340.216 238.7 342.135 241.5 343.966 243.7C345.797 245.9 342.309 252.1 346.931 257.3C351.553 262.5 354.605 264.1 356.524 267.5C356.785 267.5 357.483 258.3 356.349 249.5Z" fill="#22272E"/>
<path d="M357.921 251.2C357.921 251.2 354.607 244.8 350.159 247.7C345.712 250.6 350.421 260.6 357.31 260.1" fill="#B28D93"/>
<path d="M381.727 246.3C382.038 247.303 382.479 248.247 383.035 249.1C383.275 249.455 383.537 249.789 383.82 250.1C384.282 250.467 384.669 250.945 384.954 251.5C385.225 252.082 385.374 252.728 385.389 253.388C385.404 254.048 385.285 254.702 385.041 255.3C384.854 255.869 384.556 256.382 384.169 256.8C383.824 257.247 383.367 257.561 382.861 257.7C383.402 256.887 383.734 255.917 383.82 254.9C383.923 254.055 383.833 253.193 383.559 252.4C383.384 252 383.21 251.9 382.774 251.4C382.403 250.93 382.108 250.388 381.902 249.8C381.541 248.679 381.48 247.46 381.727 246.3Z" fill="#22272E"/>
<path d="M377.019 266C375.866 266.11 374.708 265.851 373.676 265.251C372.644 264.65 371.779 263.732 371.176 262.6" stroke="#22272E" stroke-width="1.8" stroke-linecap="round" stroke-linejoin="round"/>
<path d="M372.049 250.5C371.888 250.504 371.728 250.471 371.578 250.402C371.428 250.333 371.292 250.23 371.178 250.099C371.064 249.968 370.974 249.812 370.914 249.641C370.854 249.469 370.825 249.285 370.828 249.1V247.7C370.825 247.515 370.854 247.331 370.914 247.16C370.974 246.988 371.064 246.832 371.178 246.701C371.292 246.57 371.428 246.467 371.578 246.398C371.728 246.329 371.888 246.296 372.049 246.3C372.211 246.296 372.371 246.329 372.521 246.398C372.67 246.467 372.806 246.57 372.921 246.701C373.035 246.832 373.124 246.988 373.185 247.16C373.245 247.331 373.274 247.515 373.27 247.7V249.1C373.264 249.469 373.133 249.821 372.905 250.082C372.678 250.343 372.371 250.492 372.049 250.5Z" fill="#22272E"/>
<path d="M385.565 250.5C385.404 250.504 385.243 250.471 385.094 250.402C384.944 250.333 384.808 250.23 384.694 250.099C384.58 249.968 384.49 249.812 384.43 249.641C384.37 249.469 384.34 249.285 384.344 249.1V247.7C384.34 247.515 384.37 247.331 384.43 247.16C384.49 246.988 384.58 246.832 384.694 246.701C384.808 246.57 384.944 246.467 385.094 246.398C385.243 246.329 385.404 246.296 385.565 246.3C385.726 246.296 385.887 246.329 386.036 246.398C386.186 246.467 386.322 246.57 386.436 246.701C386.55 246.832 386.64 246.988 386.7 247.16C386.76 247.331 386.789 247.515 386.786 247.7V249.1C386.779 249.469 386.648 249.821 386.421 250.082C386.193 250.343 385.887 250.492 385.565 250.5Z" fill="#22272E"/>
<path d="M373.792 243.2C372.92 243.6 372.309 242.4 371.001 242.8C368.996 243.5 368.036 244.3 367.688 243.3C367.426 242.6 368.647 240.8 370.565 240.2C373.356 239.5 375.362 242.5 373.792 243.2Z" fill="#22272E"/>
<path d="M383.906 243.2C384.604 243.5 385.127 242.4 386.086 242.7C387.394 243.2 388.092 243.8 388.266 243C388.441 242.4 387.743 240.8 386.435 240.3C384.342 239.5 382.511 242.6 383.906 243.2Z" fill="#22272E"/>
<path d="M350.855 251.9C350.905 251.687 350.993 251.488 351.113 251.316C351.233 251.144 351.383 251.002 351.553 250.9C351.735 250.732 351.945 250.61 352.17 250.541C352.395 250.472 352.631 250.458 352.861 250.5C353.352 250.615 353.787 250.936 354.082 251.4C354.318 251.778 354.522 252.179 354.693 252.6C354.926 253.314 355.101 254.05 355.216 254.8C355.303 255.1 355.303 255.3 355.477 255.5C355.729 255.745 356.028 255.917 356.35 256C356.014 256.251 355.613 256.357 355.216 256.3C354.76 256.157 354.36 255.84 354.082 255.4C353.719 254.743 353.426 254.038 353.21 253.3C353.11 252.992 352.994 252.692 352.861 252.4C352.796 252.194 352.673 252.019 352.512 251.9C352.251 251.5 351.553 251.6 350.855 251.9Z" fill="#22272E"/>
<path d="M358.705 313.6C359.054 317.4 356.874 321.5 353.734 321.8C352.207 321.866 350.714 321.262 349.561 320.112C348.407 318.961 347.679 317.35 347.523 315.606C347.368 313.862 347.797 312.116 348.724 310.722C349.651 309.328 351.006 308.39 352.513 308.1C355.74 307.7 358.444 309.8 358.705 313.6Z" fill="#FFE779"/>
<path d="M367.34 293.8C367.34 293.8 358.009 289.1 353.91 278.7L355.567 270.5C357.487 274.707 360.464 278.156 364.113 280.4C365.1 280.981 365.935 281.852 366.532 282.923C367.13 283.995 367.469 285.229 367.514 286.5C367.583 288.935 367.524 291.373 367.34 293.8Z" fill="#3F3D56"/>
<path d="M253.011 352.3C253.013 353.023 252.891 353.739 252.65 354.408C252.41 355.076 252.057 355.684 251.611 356.195C251.165 356.706 250.636 357.111 250.053 357.387C249.47 357.662 248.845 357.802 248.214 357.8C246.946 357.787 245.732 357.203 244.835 356.174C243.938 355.146 243.429 353.754 243.418 352.3C243.418 350.841 243.923 349.442 244.823 348.411C245.722 347.379 246.942 346.8 248.214 346.8C249.486 346.8 250.706 347.379 251.606 348.411C252.505 349.442 253.011 350.841 253.011 352.3Z" fill="#2F2E41"/>
<path d="M253.009 371.6H243.417C242.901 371.602 242.389 371.488 241.912 371.262C241.435 371.037 241.001 370.706 240.636 370.287C240.272 369.869 239.983 369.372 239.786 368.825C239.59 368.278 239.49 367.691 239.492 367.1C239.492 364.447 240.411 361.904 242.046 360.029C243.682 358.153 245.9 357.1 248.213 357.1C250.526 357.1 252.744 358.153 254.379 360.029C256.015 361.904 256.934 364.447 256.934 367.1C256.936 367.691 256.836 368.278 256.64 368.825C256.443 369.372 256.154 369.869 255.789 370.287C255.425 370.706 254.991 371.037 254.514 371.262C254.037 371.488 253.525 371.602 253.009 371.6Z" fill="#2F2E41"/>
<path d="M223.797 359.2C223.791 365.094 225.406 370.84 228.414 375.619C231.422 380.399 235.668 383.968 240.548 385.818C245.428 387.669 250.693 387.707 255.593 385.926C260.492 384.145 264.777 380.636 267.836 375.9" stroke="#6DAFA7" stroke-width="1.8" stroke-linecap="round" stroke-linejoin="round"/>
<path d="M270.453 379.2L270.628 370.2L263.738 374.5L270.453 379.2Z" fill="#6DAFA7"/>
<path d="M272.543 359.2C272.539 353.223 270.866 347.404 267.771 342.595C264.675 337.786 260.318 334.239 255.338 332.473C250.358 330.707 245.016 330.816 240.094 332.782C235.171 334.748 230.926 338.469 227.98 343.4" stroke="#6DAFA7" stroke-width="1.8" stroke-linecap="round" stroke-linejoin="round"/>
<path d="M225.277 340.2L225.452 349.1L232.167 344.5L225.277 340.2Z" fill="#6DAFA7"/>
</svg>
