<svg width="12" height="19" viewBox="0 0 12 19" fill="none" xmlns="http://www.w3.org/2000/svg">
<path d="M6.06445 12.2231C7.71631 12.2231 8.82861 10.9863 8.82861 9.21826V3.66504C8.82861 1.88867 7.71631 0.660156 6.06445 0.660156C4.4043 0.660156 3.29199 1.88867 3.29199 3.66504V9.21826C3.29199 10.9863 4.4043 12.2231 6.06445 12.2231ZM0.121094 9.35107C0.121094 12.605 2.271 14.8877 5.43359 15.1533V17.0874H2.354C2.00537 17.0874 1.72314 17.3696 1.72314 17.7183C1.72314 18.0669 2.00537 18.3408 2.354 18.3408H9.7666C10.1152 18.3408 10.3975 18.0669 10.3975 17.7183C10.3975 17.3696 10.1152 17.0874 9.7666 17.0874H6.68701V15.1533C9.85791 14.8877 11.9995 12.605 11.9995 9.35107V7.66602C11.9995 7.31738 11.7256 7.04346 11.377 7.04346C11.0283 7.04346 10.7461 7.31738 10.7461 7.66602V9.30127C10.7461 12.1318 8.90332 14.0078 6.06445 14.0078C3.21729 14.0078 1.37451 12.1318 1.37451 9.30127V7.66602C1.37451 7.31738 1.10059 7.04346 0.743652 7.04346C0.39502 7.04346 0.121094 7.31738 0.121094 7.66602V9.35107Z" fill="#BA5624"/>
</svg>
