<svg width="1529" height="709" viewBox="0 0 1529 709" fill="none" xmlns="http://www.w3.org/2000/svg">
<g clip-path="url(#clip0_17_551)">
<path opacity="0.24" d="M0 539.726C254.833 265.579 509.667 203.837 764.5 354.499C1019.33 505.162 1274.17 566.904 1529 539.726" stroke="url(#paint0_linear_17_551)" stroke-width="5" stroke-linecap="round"/>
<path opacity="0.69" d="M0 533.522C254.833 263.511 509.667 203.837 764.5 354.499C1019.33 505.162 1274.17 564.836 1529 533.522" stroke="url(#paint1_linear_17_551)" stroke-width="5" stroke-linecap="round"/>
<path opacity="0.2" d="M0 527.319C254.833 261.444 509.667 203.838 764.5 354.5C1019.33 505.163 1274.17 562.769 1529 527.319" stroke="url(#paint2_linear_17_551)" stroke-width="5" stroke-linecap="round"/>
<path opacity="0.6" d="M0 521.115C254.833 259.376 509.667 203.837 764.5 354.5C1019.33 505.162 1274.17 560.701 1529 521.115" stroke="url(#paint3_linear_17_551)" stroke-width="5" stroke-linecap="round"/>
<path opacity="0.61" d="M0 514.911C254.833 257.308 509.667 203.838 764.5 354.5C1019.33 505.163 1274.17 558.633 1529 514.911" stroke="url(#paint4_linear_17_551)" stroke-width="5" stroke-linecap="round"/>
<path opacity="0.25" d="M0 508.708C254.833 255.24 509.667 203.838 764.5 354.5C1019.33 505.163 1274.17 556.565 1529 508.708" stroke="url(#paint5_linear_17_551)" stroke-width="5" stroke-linecap="round"/>
<path opacity="0.32" d="M0 502.504C254.833 253.172 509.667 203.838 764.5 354.5C1019.33 505.163 1274.17 554.497 1529 502.504" stroke="url(#paint6_linear_17_551)" stroke-width="5" stroke-linecap="round"/>
<path opacity="0.14" d="M0 496.3C254.833 251.104 509.667 203.837 764.5 354.5C1019.33 505.162 1274.17 552.429 1529 496.3" stroke="url(#paint7_linear_17_551)" stroke-width="5" stroke-linecap="round"/>
<path opacity="0.81" d="M0 490.096C254.833 249.036 509.667 203.837 764.5 354.5C1019.33 505.162 1274.17 550.361 1529 490.096" stroke="url(#paint8_linear_17_551)" stroke-width="5" stroke-linecap="round"/>
<path opacity="0.32" d="M0 483.892C254.833 246.968 509.667 203.837 764.5 354.5C1019.33 505.162 1274.17 548.293 1529 483.892" stroke="url(#paint9_linear_17_551)" stroke-width="5" stroke-linecap="round"/>
<path opacity="0.83" d="M0 477.689C254.833 244.9 509.667 203.837 764.5 354.5C1019.33 505.162 1274.17 546.225 1529 477.689" stroke="url(#paint10_linear_17_551)" stroke-width="5" stroke-linecap="round"/>
<path opacity="0.88" d="M0 471.485C254.833 242.833 509.667 203.838 764.5 354.5C1019.33 505.163 1274.17 544.158 1529 471.485" stroke="url(#paint11_linear_17_551)" stroke-width="5" stroke-linecap="round"/>
<path opacity="0.67" d="M0 465.281C254.833 240.764 509.667 203.837 764.5 354.499C1019.33 505.162 1274.17 542.089 1529 465.281" stroke="url(#paint12_linear_17_551)" stroke-width="5" stroke-linecap="round"/>
<path opacity="0.34" d="M0 459.077C254.833 238.696 509.667 203.837 764.5 354.499C1019.33 505.162 1274.17 540.021 1529 459.077" stroke="url(#paint13_linear_17_551)" stroke-width="5" stroke-linecap="round"/>
<path opacity="0.81" d="M0 452.873C254.833 236.628 509.667 203.837 764.5 354.5C1019.33 505.162 1274.17 537.953 1529 452.873" stroke="url(#paint14_linear_17_551)" stroke-width="5" stroke-linecap="round"/>
<path opacity="0.34" d="M0 446.67C254.833 234.561 509.667 203.837 764.5 354.5C1019.33 505.162 1274.17 535.886 1529 446.67" stroke="url(#paint15_linear_17_551)" stroke-width="5" stroke-linecap="round"/>
<path opacity="0.23" d="M0 440.466C254.833 232.492 509.667 203.837 764.5 354.499C1019.33 505.162 1274.17 533.817 1529 440.466" stroke="url(#paint16_linear_17_551)" stroke-width="5" stroke-linecap="round"/>
<path opacity="0.72" d="M0 434.262C254.833 230.424 509.667 203.837 764.5 354.499C1019.33 505.162 1274.17 531.749 1529 434.262" stroke="url(#paint17_linear_17_551)" stroke-width="5" stroke-linecap="round"/>
<path opacity="0.33" d="M0 428.058C254.833 228.357 509.667 203.837 764.5 354.499C1019.33 505.162 1274.17 529.682 1529 428.058" stroke="url(#paint18_linear_17_551)" stroke-width="5" stroke-linecap="round"/>
<path opacity="0.6" d="M0 421.855C254.833 226.289 509.667 203.838 764.5 354.5C1019.33 505.163 1274.17 527.614 1529 421.855" stroke="url(#paint19_linear_17_551)" stroke-width="5" stroke-linecap="round"/>
<path opacity="0.66" d="M0 415.651C254.833 224.221 509.667 203.837 764.5 354.5C1019.33 505.162 1274.17 525.546 1529 415.651" stroke="url(#paint20_linear_17_551)" stroke-width="5" stroke-linecap="round"/>
<path opacity="0.83" d="M0 409.447C254.833 222.153 509.667 203.837 764.5 354.5C1019.33 505.162 1274.17 523.478 1529 409.447" stroke="url(#paint21_linear_17_551)" stroke-width="5" stroke-linecap="round"/>
<path opacity="0.52" d="M0 403.244C254.833 220.086 509.667 203.838 764.5 354.5C1019.33 505.163 1274.17 521.411 1529 403.244" stroke="url(#paint22_linear_17_551)" stroke-width="5" stroke-linecap="round"/>
<path opacity="0.2" d="M0 397.039C254.833 218.017 509.667 203.837 764.5 354.499C1019.33 505.162 1274.17 519.342 1529 397.039" stroke="url(#paint23_linear_17_551)" stroke-width="5" stroke-linecap="round"/>
<path opacity="0.47" d="M0 390.836C254.833 215.949 509.667 203.837 764.5 354.5C1019.33 505.162 1274.17 517.274 1529 390.836" stroke="url(#paint24_linear_17_551)" stroke-width="5" stroke-linecap="round"/>
<path opacity="0.9" d="M0 384.633C254.833 213.882 509.667 203.837 764.5 354.5C1019.33 505.163 1274.17 515.207 1529 384.633" stroke="url(#paint25_linear_17_551)" stroke-width="5" stroke-linecap="round"/>
<path opacity="0.7" d="M0 378.429C254.833 211.814 509.667 203.838 764.5 354.5C1019.33 505.163 1274.17 513.139 1529 378.429" stroke="url(#paint26_linear_17_551)" stroke-width="5" stroke-linecap="round"/>
<path opacity="0.14" d="M0 372.224C254.833 209.745 509.667 203.837 764.5 354.499C1019.33 505.162 1274.17 511.07 1529 372.224" stroke="url(#paint27_linear_17_551)" stroke-width="5" stroke-linecap="round"/>
<path opacity="0.23" d="M0 366.021C254.833 207.678 509.667 203.837 764.5 354.5C1019.33 505.162 1274.17 509.003 1529 366.021" stroke="url(#paint28_linear_17_551)" stroke-width="5" stroke-linecap="round"/>
<path opacity="0.21" d="M0 359.817C254.833 205.609 509.667 203.837 764.5 354.499C1019.33 505.162 1274.17 506.934 1529 359.817" stroke="url(#paint29_linear_17_551)" stroke-width="5" stroke-linecap="round"/>
<path opacity="0.56" d="M0 353.614C254.833 203.542 509.667 203.838 764.5 354.5C1019.33 505.163 1274.17 504.867 1529 353.614" stroke="url(#paint30_linear_17_551)" stroke-width="5" stroke-linecap="round"/>
<path opacity="0.9" d="M0 347.41C254.833 201.474 509.667 203.837 764.5 354.5C1019.33 505.162 1274.17 502.799 1529 347.41" stroke="url(#paint31_linear_17_551)" stroke-width="5" stroke-linecap="round"/>
<path opacity="0.8" d="M0 341.206C254.833 199.406 509.667 203.838 764.5 354.5C1019.33 505.163 1274.17 500.731 1529 341.206" stroke="url(#paint32_linear_17_551)" stroke-width="5" stroke-linecap="round"/>
<path opacity="0.16" d="M0 335.003C254.833 197.339 509.667 203.838 764.5 354.5C1019.33 505.163 1274.17 498.664 1529 335.003" stroke="url(#paint33_linear_17_551)" stroke-width="5" stroke-linecap="round"/>
<path opacity="0.75" d="M0 328.799C254.833 195.27 509.667 203.838 764.5 354.5C1019.33 505.163 1274.17 496.595 1529 328.799" stroke="url(#paint34_linear_17_551)" stroke-width="5" stroke-linecap="round"/>
<path opacity="0.33" d="M0 322.595C254.833 193.202 509.667 203.837 764.5 354.5C1019.33 505.162 1274.17 494.527 1529 322.595" stroke="url(#paint35_linear_17_551)" stroke-width="5" stroke-linecap="round"/>
<path opacity="0.41" d="M0 316.391C254.833 191.135 509.667 203.837 764.5 354.5C1019.33 505.162 1274.17 492.46 1529 316.391" stroke="url(#paint36_linear_17_551)" stroke-width="5" stroke-linecap="round"/>
<path opacity="0.4" d="M0 310.187C254.833 189.067 509.667 203.837 764.5 354.5C1019.33 505.162 1274.17 490.392 1529 310.187" stroke="url(#paint37_linear_17_551)" stroke-width="5" stroke-linecap="round"/>
<path opacity="0.42" d="M0 303.984C254.833 186.999 509.667 203.838 764.5 354.5C1019.33 505.163 1274.17 488.324 1529 303.984" stroke="url(#paint38_linear_17_551)" stroke-width="5" stroke-linecap="round"/>
<path opacity="0.33" d="M0 297.78C254.833 184.931 509.667 203.837 764.5 354.5C1019.33 505.162 1274.17 486.256 1529 297.78" stroke="url(#paint39_linear_17_551)" stroke-width="5" stroke-linecap="round"/>
<path opacity="0.73" d="M0 291.576C254.833 182.862 509.667 203.837 764.5 354.5C1019.33 505.162 1274.17 484.187 1529 291.576" stroke="url(#paint40_linear_17_551)" stroke-width="5" stroke-linecap="round"/>
<path opacity="0.63" d="M0 285.372C254.833 180.795 509.667 203.837 764.5 354.5C1019.33 505.162 1274.17 482.12 1529 285.372" stroke="url(#paint41_linear_17_551)" stroke-width="5" stroke-linecap="round"/>
<path opacity="0.69" d="M0 279.168C254.833 178.727 509.667 203.837 764.5 354.5C1019.33 505.162 1274.17 480.052 1529 279.168" stroke="url(#paint42_linear_17_551)" stroke-width="5" stroke-linecap="round"/>
<path opacity="0.81" d="M0 272.965C254.833 176.659 509.667 203.837 764.5 354.5C1019.33 505.162 1274.17 477.984 1529 272.965" stroke="url(#paint43_linear_17_551)" stroke-width="5" stroke-linecap="round"/>
<path opacity="0.58" d="M0 266.761C254.833 174.591 509.667 203.837 764.5 354.499C1019.33 505.162 1274.17 475.916 1529 266.761" stroke="url(#paint44_linear_17_551)" stroke-width="5" stroke-linecap="round"/>
<path opacity="0.87" d="M0 260.558C254.833 172.523 509.667 203.838 764.5 354.5C1019.33 505.163 1274.17 473.848 1529 260.558" stroke="url(#paint45_linear_17_551)" stroke-width="5" stroke-linecap="round"/>
<path opacity="0.17" d="M0 254.353C254.833 170.455 509.667 203.837 764.5 354.5C1019.33 505.162 1274.17 471.78 1529 254.353" stroke="url(#paint46_linear_17_551)" stroke-width="5" stroke-linecap="round"/>
<path opacity="0.51" d="M0 248.15C254.833 168.387 509.667 203.837 764.5 354.5C1019.33 505.162 1274.17 469.712 1529 248.15" stroke="url(#paint47_linear_17_551)" stroke-width="5" stroke-linecap="round"/>
<path opacity="0.17" d="M0 241.946C254.833 166.32 509.667 203.837 764.5 354.5C1019.33 505.163 1274.17 467.645 1529 241.946" stroke="url(#paint48_linear_17_551)" stroke-width="5" stroke-linecap="round"/>
<path opacity="0.23" d="M0 235.742C254.833 164.251 509.667 203.837 764.5 354.499C1019.33 505.162 1274.17 465.576 1529 235.742" stroke="url(#paint49_linear_17_551)" stroke-width="5" stroke-linecap="round"/>
<path opacity="0.52" d="M0 229.538C254.833 162.183 509.667 203.837 764.5 354.5C1019.33 505.162 1274.17 463.508 1529 229.538" stroke="url(#paint50_linear_17_551)" stroke-width="5" stroke-linecap="round"/>
<path opacity="0.91" d="M0 223.335C254.833 160.116 509.667 203.838 764.5 354.5C1019.33 505.163 1274.17 461.441 1529 223.335" stroke="url(#paint51_linear_17_551)" stroke-width="5" stroke-linecap="round"/>
<path opacity="0.26" d="M0 217.131C254.833 158.047 509.667 203.837 764.5 354.5C1019.33 505.162 1274.17 459.372 1529 217.131" stroke="url(#paint52_linear_17_551)" stroke-width="5" stroke-linecap="round"/>
<path opacity="0.31" d="M0 210.927C254.833 155.979 509.667 203.837 764.5 354.499C1019.33 505.162 1274.17 457.304 1529 210.927" stroke="url(#paint53_linear_17_551)" stroke-width="5" stroke-linecap="round"/>
<path opacity="0.92" d="M0 204.724C254.833 153.912 509.667 203.838 764.5 354.5C1019.33 505.163 1274.17 455.237 1529 204.724" stroke="url(#paint54_linear_17_551)" stroke-width="5" stroke-linecap="round"/>
<path opacity="0.45" d="M0 198.52C254.833 151.844 509.667 203.838 764.5 354.5C1019.33 505.163 1274.17 453.169 1529 198.52" stroke="url(#paint55_linear_17_551)" stroke-width="5" stroke-linecap="round"/>
<path opacity="0.76" d="M0 192.316C254.833 149.776 509.667 203.837 764.5 354.499C1019.33 505.162 1274.17 451.101 1529 192.316" stroke="url(#paint56_linear_17_551)" stroke-width="5" stroke-linecap="round"/>
<path opacity="0.53" d="M0 186.112C254.833 147.708 509.667 203.837 764.5 354.5C1019.33 505.162 1274.17 449.033 1529 186.112" stroke="url(#paint57_linear_17_551)" stroke-width="5" stroke-linecap="round"/>
<path opacity="0.75" d="M0 179.909C254.833 145.641 509.667 203.838 764.5 354.5C1019.33 505.163 1274.17 446.966 1529 179.909" stroke="url(#paint58_linear_17_551)" stroke-width="5" stroke-linecap="round"/>
<path opacity="0.24" d="M0 173.705C254.833 143.572 509.667 203.838 764.5 354.5C1019.33 505.163 1274.17 444.898 1529 173.705" stroke="url(#paint59_linear_17_551)" stroke-width="5" stroke-linecap="round"/>
<path opacity="0.37" d="M0 167.501C254.833 141.504 509.667 203.837 764.5 354.5C1019.33 505.162 1274.17 442.829 1529 167.501" stroke="url(#paint60_linear_17_551)" stroke-width="5" stroke-linecap="round"/>
<path opacity="0.52" d="M0 161.298C254.833 139.437 509.667 203.838 764.5 354.5C1019.33 505.163 1274.17 440.762 1529 161.298" stroke="url(#paint61_linear_17_551)" stroke-width="5" stroke-linecap="round"/>
<path opacity="0.23" d="M0 155.094C254.833 137.369 509.667 203.837 764.5 354.5C1019.33 505.162 1274.17 438.694 1529 155.094" stroke="url(#paint62_linear_17_551)" stroke-width="5" stroke-linecap="round"/>
<path opacity="0.41" d="M0 148.89C254.833 135.3 509.667 203.837 764.5 354.5C1019.33 505.162 1274.17 436.625 1529 148.89" stroke="url(#paint63_linear_17_551)" stroke-width="5" stroke-linecap="round"/>
<path opacity="0.53" d="M0 142.686C254.833 133.232 509.667 203.837 764.5 354.5C1019.33 505.162 1274.17 434.557 1529 142.686" stroke="url(#paint64_linear_17_551)" stroke-width="5" stroke-linecap="round"/>
<path opacity="0.67" d="M0 136.482C254.833 131.164 509.667 203.837 764.5 354.499C1019.33 505.162 1274.17 432.489 1529 136.482" stroke="url(#paint65_linear_17_551)" stroke-width="5" stroke-linecap="round"/>
<path opacity="0.19" d="M0 130.278C254.833 129.097 509.667 203.837 764.5 354.5C1019.33 505.162 1274.17 430.422 1529 130.278" stroke="url(#paint66_linear_17_551)" stroke-width="5" stroke-linecap="round"/>
<path opacity="0.28" d="M0 124.075C254.833 127.029 509.667 203.838 764.5 354.5C1019.33 505.163 1274.17 428.354 1529 124.075" stroke="url(#paint67_linear_17_551)" stroke-width="5" stroke-linecap="round"/>
<path opacity="0.84" d="M0 117.871C254.833 124.961 509.667 203.837 764.5 354.5C1019.33 505.162 1274.17 426.286 1529 117.871" stroke="url(#paint68_linear_17_551)" stroke-width="5" stroke-linecap="round"/>
<path opacity="0.54" d="M0 111.667C254.833 122.893 509.667 203.837 764.5 354.499C1019.33 505.162 1274.17 424.218 1529 111.667" stroke="url(#paint69_linear_17_551)" stroke-width="5" stroke-linecap="round"/>
<path opacity="0.67" d="M0 105.464C254.833 120.826 509.667 203.838 764.5 354.5C1019.33 505.163 1274.17 422.151 1529 105.464" stroke="url(#paint70_linear_17_551)" stroke-width="5" stroke-linecap="round"/>
<path opacity="0.45" d="M0 99.2598C254.833 118.757 509.667 203.837 764.5 354.5C1019.33 505.162 1274.17 420.082 1529 99.2598" stroke="url(#paint71_linear_17_551)" stroke-width="5" stroke-linecap="round"/>
<path opacity="0.19" d="M0 93.0557C254.833 116.689 509.667 203.837 764.5 354.499C1019.33 505.162 1274.17 418.014 1529 93.0557" stroke="url(#paint72_linear_17_551)" stroke-width="5" stroke-linecap="round"/>
<path opacity="0.78" d="M0 86.8525C254.833 114.622 509.667 203.838 764.5 354.5C1019.33 505.163 1274.17 415.947 1529 86.8525" stroke="url(#paint73_linear_17_551)" stroke-width="5" stroke-linecap="round"/>
<path opacity="0.46" d="M0 80.6484C254.833 112.553 509.667 203.837 764.5 354.5C1019.33 505.162 1274.17 413.878 1529 80.6484" stroke="url(#paint74_linear_17_551)" stroke-width="5" stroke-linecap="round"/>
<path opacity="0.47" d="M0 74.4443C254.833 110.485 509.667 203.837 764.5 354.499C1019.33 505.162 1274.17 411.81 1529 74.4443" stroke="url(#paint75_linear_17_551)" stroke-width="5" stroke-linecap="round"/>
<path opacity="0.77" d="M0 68.2412C254.833 108.418 509.667 203.837 764.5 354.5C1019.33 505.162 1274.17 409.743 1529 68.2412" stroke="url(#paint76_linear_17_551)" stroke-width="5" stroke-linecap="round"/>
<path opacity="0.35" d="M0 62.0371C254.833 106.35 509.667 203.837 764.5 354.5C1019.33 505.162 1274.17 407.675 1529 62.0371" stroke="url(#paint77_linear_17_551)" stroke-width="5" stroke-linecap="round"/>
<path opacity="0.1" d="M0 55.833C254.833 104.281 509.667 203.837 764.5 354.499C1019.33 505.162 1274.17 405.606 1529 55.833" stroke="url(#paint78_linear_17_551)" stroke-width="5" stroke-linecap="round"/>
<path opacity="0.6" d="M0 49.6299C254.833 102.214 509.667 203.837 764.5 354.5C1019.33 505.162 1274.17 403.539 1529 49.6299" stroke="url(#paint79_linear_17_551)" stroke-width="5" stroke-linecap="round"/>
<path opacity="0.28" d="M0 43.4258C254.833 100.146 509.667 203.837 764.5 354.5C1019.33 505.162 1274.17 401.471 1529 43.4258" stroke="url(#paint80_linear_17_551)" stroke-width="5" stroke-linecap="round"/>
<path opacity="0.07" d="M0 37.2227C254.833 98.0785 509.667 203.838 764.5 354.5C1019.33 505.163 1274.17 399.403 1529 37.2227" stroke="url(#paint81_linear_17_551)" stroke-width="5" stroke-linecap="round"/>
<path opacity="0.17" d="M0 31.0186C254.833 96.0102 509.667 203.837 764.5 354.5C1019.33 505.162 1274.17 397.335 1529 31.0186" stroke="url(#paint82_linear_17_551)" stroke-width="5" stroke-linecap="round"/>
<path opacity="0.89" d="M0 24.8145C254.833 93.9419 509.667 203.837 764.5 354.499C1019.33 505.162 1274.17 395.267 1529 24.8145" stroke="url(#paint83_linear_17_551)" stroke-width="5" stroke-linecap="round"/>
<path opacity="0.79" d="M0 18.6113C254.833 91.8747 509.667 203.838 764.5 354.5C1019.33 505.163 1274.17 393.2 1529 18.6113" stroke="url(#paint84_linear_17_551)" stroke-width="5" stroke-linecap="round"/>
<path opacity="0.2" d="M0 12.4072C254.833 89.8064 509.667 203.837 764.5 354.5C1019.33 505.162 1274.17 391.131 1529 12.4072" stroke="url(#paint85_linear_17_551)" stroke-width="5" stroke-linecap="round"/>
</g>
<defs>
<linearGradient id="paint0_linear_17_551" x1="764.5" y1="274.349" x2="764.5" y2="545.956" gradientUnits="userSpaceOnUse">
<stop stop-color="#BC5724"/>
<stop offset="1" stop-color="#BC5724"/>
</linearGradient>
<linearGradient id="paint1_linear_17_551" x1="764.5" y1="273.561" x2="764.5" y2="541.605" gradientUnits="userSpaceOnUse">
<stop stop-color="#BC5724"/>
<stop offset="1" stop-color="#BC5724"/>
</linearGradient>
<linearGradient id="paint2_linear_17_551" x1="764.5" y1="272.758" x2="764.5" y2="537.448" gradientUnits="userSpaceOnUse">
<stop stop-color="#BC5724"/>
<stop offset="1" stop-color="#BC5724"/>
</linearGradient>
<linearGradient id="paint3_linear_17_551" x1="764.5" y1="271.938" x2="764.5" y2="533.47" gradientUnits="userSpaceOnUse">
<stop stop-color="#BC5724"/>
<stop offset="1" stop-color="#BC5724"/>
</linearGradient>
<linearGradient id="paint4_linear_17_551" x1="764.5" y1="271.102" x2="764.5" y2="529.662" gradientUnits="userSpaceOnUse">
<stop stop-color="#BC5724"/>
<stop offset="1" stop-color="#BC5724"/>
</linearGradient>
<linearGradient id="paint5_linear_17_551" x1="764.5" y1="270.248" x2="764.5" y2="526.013" gradientUnits="userSpaceOnUse">
<stop stop-color="#BC5724"/>
<stop offset="1" stop-color="#BC5724"/>
</linearGradient>
<linearGradient id="paint6_linear_17_551" x1="764.5" y1="269.377" x2="764.5" y2="522.513" gradientUnits="userSpaceOnUse">
<stop stop-color="#BC5724"/>
<stop offset="1" stop-color="#BC5724"/>
</linearGradient>
<linearGradient id="paint7_linear_17_551" x1="764.5" y1="268.487" x2="764.5" y2="519.152" gradientUnits="userSpaceOnUse">
<stop stop-color="#BC5724"/>
<stop offset="1" stop-color="#BC5724"/>
</linearGradient>
<linearGradient id="paint8_linear_17_551" x1="764.5" y1="267.579" x2="764.5" y2="515.924" gradientUnits="userSpaceOnUse">
<stop stop-color="#BC5724"/>
<stop offset="1" stop-color="#BC5724"/>
</linearGradient>
<linearGradient id="paint9_linear_17_551" x1="764.5" y1="266.651" x2="764.5" y2="512.819" gradientUnits="userSpaceOnUse">
<stop stop-color="#BC5724"/>
<stop offset="1" stop-color="#BC5724"/>
</linearGradient>
<linearGradient id="paint10_linear_17_551" x1="764.5" y1="265.704" x2="764.5" y2="509.832" gradientUnits="userSpaceOnUse">
<stop stop-color="#BC5724"/>
<stop offset="1" stop-color="#BC5724"/>
</linearGradient>
<linearGradient id="paint11_linear_17_551" x1="764.5" y1="264.736" x2="764.5" y2="506.956" gradientUnits="userSpaceOnUse">
<stop stop-color="#BC5724"/>
<stop offset="1" stop-color="#BC5724"/>
</linearGradient>
<linearGradient id="paint12_linear_17_551" x1="764.5" y1="263.746" x2="764.5" y2="504.184" gradientUnits="userSpaceOnUse">
<stop stop-color="#BC5724"/>
<stop offset="1" stop-color="#BC5724"/>
</linearGradient>
<linearGradient id="paint13_linear_17_551" x1="764.5" y1="262.734" x2="764.5" y2="501.511" gradientUnits="userSpaceOnUse">
<stop stop-color="#BC5724"/>
<stop offset="1" stop-color="#BC5724"/>
</linearGradient>
<linearGradient id="paint14_linear_17_551" x1="764.5" y1="261.7" x2="764.5" y2="498.932" gradientUnits="userSpaceOnUse">
<stop stop-color="#BC5724"/>
<stop offset="1" stop-color="#BC5724"/>
</linearGradient>
<linearGradient id="paint15_linear_17_551" x1="764.5" y1="260.643" x2="764.5" y2="496.442" gradientUnits="userSpaceOnUse">
<stop stop-color="#BC5724"/>
<stop offset="1" stop-color="#BC5724"/>
</linearGradient>
<linearGradient id="paint16_linear_17_551" x1="764.5" y1="259.56" x2="764.5" y2="494.035" gradientUnits="userSpaceOnUse">
<stop stop-color="#BC5724"/>
<stop offset="1" stop-color="#BC5724"/>
</linearGradient>
<linearGradient id="paint17_linear_17_551" x1="764.5" y1="258.452" x2="764.5" y2="491.71" gradientUnits="userSpaceOnUse">
<stop stop-color="#BC5724"/>
<stop offset="1" stop-color="#BC5724"/>
</linearGradient>
<linearGradient id="paint18_linear_17_551" x1="764.5" y1="257.318" x2="764.5" y2="489.461" gradientUnits="userSpaceOnUse">
<stop stop-color="#BC5724"/>
<stop offset="1" stop-color="#BC5724"/>
</linearGradient>
<linearGradient id="paint19_linear_17_551" x1="764.5" y1="256.158" x2="764.5" y2="487.285" gradientUnits="userSpaceOnUse">
<stop stop-color="#BC5724"/>
<stop offset="1" stop-color="#BC5724"/>
</linearGradient>
<linearGradient id="paint20_linear_17_551" x1="764.5" y1="254.969" x2="764.5" y2="485.176" gradientUnits="userSpaceOnUse">
<stop stop-color="#BC5724"/>
<stop offset="1" stop-color="#BC5724"/>
</linearGradient>
<linearGradient id="paint21_linear_17_551" x1="764.5" y1="253.751" x2="764.5" y2="483.135" gradientUnits="userSpaceOnUse">
<stop stop-color="#BC5724"/>
<stop offset="1" stop-color="#BC5724"/>
</linearGradient>
<linearGradient id="paint22_linear_17_551" x1="764.5" y1="252.503" x2="764.5" y2="481.156" gradientUnits="userSpaceOnUse">
<stop stop-color="#BC5724"/>
<stop offset="1" stop-color="#BC5724"/>
</linearGradient>
<linearGradient id="paint23_linear_17_551" x1="764.5" y1="251.223" x2="764.5" y2="479.236" gradientUnits="userSpaceOnUse">
<stop stop-color="#BC5724"/>
<stop offset="1" stop-color="#BC5724"/>
</linearGradient>
<linearGradient id="paint24_linear_17_551" x1="764.5" y1="249.911" x2="764.5" y2="477.375" gradientUnits="userSpaceOnUse">
<stop stop-color="#BC5724"/>
<stop offset="1" stop-color="#BC5724"/>
</linearGradient>
<linearGradient id="paint25_linear_17_551" x1="764.5" y1="248.565" x2="764.5" y2="475.568" gradientUnits="userSpaceOnUse">
<stop stop-color="#BC5724"/>
<stop offset="1" stop-color="#BC5724"/>
</linearGradient>
<linearGradient id="paint26_linear_17_551" x1="764.5" y1="247.185" x2="764.5" y2="473.814" gradientUnits="userSpaceOnUse">
<stop stop-color="#BC5724"/>
<stop offset="1" stop-color="#BC5724"/>
</linearGradient>
<linearGradient id="paint27_linear_17_551" x1="764.5" y1="245.767" x2="764.5" y2="472.108" gradientUnits="userSpaceOnUse">
<stop stop-color="#BC5724"/>
<stop offset="1" stop-color="#BC5724"/>
</linearGradient>
<linearGradient id="paint28_linear_17_551" x1="764.5" y1="244.312" x2="764.5" y2="470.452" gradientUnits="userSpaceOnUse">
<stop stop-color="#BC5724"/>
<stop offset="1" stop-color="#BC5724"/>
</linearGradient>
<linearGradient id="paint29_linear_17_551" x1="764.5" y1="242.816" x2="764.5" y2="468.841" gradientUnits="userSpaceOnUse">
<stop stop-color="#BC5724"/>
<stop offset="1" stop-color="#BC5724"/>
</linearGradient>
<linearGradient id="paint30_linear_17_551" x1="764.5" y1="241.281" x2="764.5" y2="467.276" gradientUnits="userSpaceOnUse">
<stop stop-color="#BC5724"/>
<stop offset="1" stop-color="#BC5724"/>
</linearGradient>
<linearGradient id="paint31_linear_17_551" x1="764.5" y1="239.702" x2="764.5" y2="465.752" gradientUnits="userSpaceOnUse">
<stop stop-color="#BC5724"/>
<stop offset="1" stop-color="#BC5724"/>
</linearGradient>
<linearGradient id="paint32_linear_17_551" x1="764.5" y1="238.079" x2="764.5" y2="464.269" gradientUnits="userSpaceOnUse">
<stop stop-color="#BC5724"/>
<stop offset="1" stop-color="#BC5724"/>
</linearGradient>
<linearGradient id="paint33_linear_17_551" x1="764.5" y1="236.409" x2="764.5" y2="462.824" gradientUnits="userSpaceOnUse">
<stop stop-color="#BC5724"/>
<stop offset="1" stop-color="#BC5724"/>
</linearGradient>
<linearGradient id="paint34_linear_17_551" x1="764.5" y1="234.69" x2="764.5" y2="461.417" gradientUnits="userSpaceOnUse">
<stop stop-color="#BC5724"/>
<stop offset="1" stop-color="#BC5724"/>
</linearGradient>
<linearGradient id="paint35_linear_17_551" x1="764.5" y1="232.921" x2="764.5" y2="460.046" gradientUnits="userSpaceOnUse">
<stop stop-color="#BC5724"/>
<stop offset="1" stop-color="#BC5724"/>
</linearGradient>
<linearGradient id="paint36_linear_17_551" x1="764.5" y1="231.099" x2="764.5" y2="458.71" gradientUnits="userSpaceOnUse">
<stop stop-color="#BC5724"/>
<stop offset="1" stop-color="#BC5724"/>
</linearGradient>
<linearGradient id="paint37_linear_17_551" x1="764.5" y1="229.221" x2="764.5" y2="457.408" gradientUnits="userSpaceOnUse">
<stop stop-color="#BC5724"/>
<stop offset="1" stop-color="#BC5724"/>
</linearGradient>
<linearGradient id="paint38_linear_17_551" x1="764.5" y1="227.285" x2="764.5" y2="456.138" gradientUnits="userSpaceOnUse">
<stop stop-color="#BC5724"/>
<stop offset="1" stop-color="#BC5724"/>
</linearGradient>
<linearGradient id="paint39_linear_17_551" x1="764.5" y1="225.288" x2="764.5" y2="454.898" gradientUnits="userSpaceOnUse">
<stop stop-color="#BC5724"/>
<stop offset="1" stop-color="#BC5724"/>
</linearGradient>
<linearGradient id="paint40_linear_17_551" x1="764.5" y1="223.228" x2="764.5" y2="453.688" gradientUnits="userSpaceOnUse">
<stop stop-color="#BC5724"/>
<stop offset="1" stop-color="#BC5724"/>
</linearGradient>
<linearGradient id="paint41_linear_17_551" x1="764.5" y1="221.101" x2="764.5" y2="452.507" gradientUnits="userSpaceOnUse">
<stop stop-color="#BC5724"/>
<stop offset="1" stop-color="#BC5724"/>
</linearGradient>
<linearGradient id="paint42_linear_17_551" x1="764.5" y1="218.903" x2="764.5" y2="451.354" gradientUnits="userSpaceOnUse">
<stop stop-color="#BC5724"/>
<stop offset="1" stop-color="#BC5724"/>
</linearGradient>
<linearGradient id="paint43_linear_17_551" x1="764.5" y1="216.633" x2="764.5" y2="450.228" gradientUnits="userSpaceOnUse">
<stop stop-color="#BC5724"/>
<stop offset="1" stop-color="#BC5724"/>
</linearGradient>
<linearGradient id="paint44_linear_17_551" x1="764.5" y1="214.284" x2="764.5" y2="449.127" gradientUnits="userSpaceOnUse">
<stop stop-color="#BC5724"/>
<stop offset="1" stop-color="#BC5724"/>
</linearGradient>
<linearGradient id="paint45_linear_17_551" x1="764.5" y1="211.855" x2="764.5" y2="448.053" gradientUnits="userSpaceOnUse">
<stop stop-color="#BC5724"/>
<stop offset="1" stop-color="#BC5724"/>
</linearGradient>
<linearGradient id="paint46_linear_17_551" x1="764.5" y1="209.34" x2="764.5" y2="447.001" gradientUnits="userSpaceOnUse">
<stop stop-color="#BC5724"/>
<stop offset="1" stop-color="#BC5724"/>
</linearGradient>
<linearGradient id="paint47_linear_17_551" x1="764.5" y1="206.734" x2="764.5" y2="445.973" gradientUnits="userSpaceOnUse">
<stop stop-color="#BC5724"/>
<stop offset="1" stop-color="#BC5724"/>
</linearGradient>
<linearGradient id="paint48_linear_17_551" x1="764.5" y1="204.034" x2="764.5" y2="444.968" gradientUnits="userSpaceOnUse">
<stop stop-color="#BC5724"/>
<stop offset="1" stop-color="#BC5724"/>
</linearGradient>
<linearGradient id="paint49_linear_17_551" x1="764.5" y1="201.232" x2="764.5" y2="443.985" gradientUnits="userSpaceOnUse">
<stop stop-color="#BC5724"/>
<stop offset="1" stop-color="#BC5724"/>
</linearGradient>
<linearGradient id="paint50_linear_17_551" x1="764.5" y1="198.325" x2="764.5" y2="443.023" gradientUnits="userSpaceOnUse">
<stop stop-color="#BC5724"/>
<stop offset="1" stop-color="#BC5724"/>
</linearGradient>
<linearGradient id="paint51_linear_17_551" x1="764.5" y1="195.306" x2="764.5" y2="442.081" gradientUnits="userSpaceOnUse">
<stop stop-color="#BC5724"/>
<stop offset="1" stop-color="#BC5724"/>
</linearGradient>
<linearGradient id="paint52_linear_17_551" x1="764.5" y1="192.166" x2="764.5" y2="441.159" gradientUnits="userSpaceOnUse">
<stop stop-color="#BC5724"/>
<stop offset="1" stop-color="#BC5724"/>
</linearGradient>
<linearGradient id="paint53_linear_17_551" x1="764.5" y1="188.9" x2="764.5" y2="440.256" gradientUnits="userSpaceOnUse">
<stop stop-color="#BC5724"/>
<stop offset="1" stop-color="#BC5724"/>
</linearGradient>
<linearGradient id="paint54_linear_17_551" x1="764.5" y1="185.502" x2="764.5" y2="439.373" gradientUnits="userSpaceOnUse">
<stop stop-color="#BC5724"/>
<stop offset="1" stop-color="#BC5724"/>
</linearGradient>
<linearGradient id="paint55_linear_17_551" x1="764.5" y1="181.96" x2="764.5" y2="438.507" gradientUnits="userSpaceOnUse">
<stop stop-color="#BC5724"/>
<stop offset="1" stop-color="#BC5724"/>
</linearGradient>
<linearGradient id="paint56_linear_17_551" x1="764.5" y1="178.266" x2="764.5" y2="437.657" gradientUnits="userSpaceOnUse">
<stop stop-color="#BC5724"/>
<stop offset="1" stop-color="#BC5724"/>
</linearGradient>
<linearGradient id="paint57_linear_17_551" x1="764.5" y1="174.411" x2="764.5" y2="436.826" gradientUnits="userSpaceOnUse">
<stop stop-color="#BC5724"/>
<stop offset="1" stop-color="#BC5724"/>
</linearGradient>
<linearGradient id="paint58_linear_17_551" x1="764.5" y1="170.384" x2="764.5" y2="436.011" gradientUnits="userSpaceOnUse">
<stop stop-color="#BC5724"/>
<stop offset="1" stop-color="#BC5724"/>
</linearGradient>
<linearGradient id="paint59_linear_17_551" x1="764.5" y1="166.172" x2="764.5" y2="435.212" gradientUnits="userSpaceOnUse">
<stop stop-color="#BC5724"/>
<stop offset="1" stop-color="#BC5724"/>
</linearGradient>
<linearGradient id="paint60_linear_17_551" x1="764.5" y1="161.763" x2="764.5" y2="434.428" gradientUnits="userSpaceOnUse">
<stop stop-color="#BC5724"/>
<stop offset="1" stop-color="#BC5724"/>
</linearGradient>
<linearGradient id="paint61_linear_17_551" x1="764.5" y1="157.143" x2="764.5" y2="433.66" gradientUnits="userSpaceOnUse">
<stop stop-color="#BC5724"/>
<stop offset="1" stop-color="#BC5724"/>
</linearGradient>
<linearGradient id="paint62_linear_17_551" x1="764.5" y1="152.295" x2="764.5" y2="432.906" gradientUnits="userSpaceOnUse">
<stop stop-color="#BC5724"/>
<stop offset="1" stop-color="#BC5724"/>
</linearGradient>
<linearGradient id="paint63_linear_17_551" x1="764.5" y1="147.203" x2="764.5" y2="432.166" gradientUnits="userSpaceOnUse">
<stop stop-color="#BC5724"/>
<stop offset="1" stop-color="#BC5724"/>
</linearGradient>
<linearGradient id="paint64_linear_17_551" x1="764.5" y1="141.849" x2="764.5" y2="431.44" gradientUnits="userSpaceOnUse">
<stop stop-color="#BC5724"/>
<stop offset="1" stop-color="#BC5724"/>
</linearGradient>
<linearGradient id="paint65_linear_17_551" x1="764.5" y1="136.21" x2="764.5" y2="430.727" gradientUnits="userSpaceOnUse">
<stop stop-color="#BC5724"/>
<stop offset="1" stop-color="#BC5724"/>
</linearGradient>
<linearGradient id="paint66_linear_17_551" x1="764.5" y1="130.265" x2="764.5" y2="430.028" gradientUnits="userSpaceOnUse">
<stop stop-color="#BC5724"/>
<stop offset="1" stop-color="#BC5724"/>
</linearGradient>
<linearGradient id="paint67_linear_17_551" x1="764.5" y1="124.075" x2="764.5" y2="429.342" gradientUnits="userSpaceOnUse">
<stop stop-color="#BC5724"/>
<stop offset="1" stop-color="#BC5724"/>
</linearGradient>
<linearGradient id="paint68_linear_17_551" x1="764.5" y1="117.871" x2="764.5" y2="428.668" gradientUnits="userSpaceOnUse">
<stop stop-color="#BC5724"/>
<stop offset="1" stop-color="#BC5724"/>
</linearGradient>
<linearGradient id="paint69_linear_17_551" x1="764.5" y1="111.667" x2="764.5" y2="428.005" gradientUnits="userSpaceOnUse">
<stop stop-color="#BC5724"/>
<stop offset="1" stop-color="#BC5724"/>
</linearGradient>
<linearGradient id="paint70_linear_17_551" x1="764.5" y1="105.464" x2="764.5" y2="427.355" gradientUnits="userSpaceOnUse">
<stop stop-color="#BC5724"/>
<stop offset="1" stop-color="#BC5724"/>
</linearGradient>
<linearGradient id="paint71_linear_17_551" x1="764.5" y1="99.2598" x2="764.5" y2="426.716" gradientUnits="userSpaceOnUse">
<stop stop-color="#BC5724"/>
<stop offset="1" stop-color="#BC5724"/>
</linearGradient>
<linearGradient id="paint72_linear_17_551" x1="764.5" y1="93.0557" x2="764.5" y2="426.087" gradientUnits="userSpaceOnUse">
<stop stop-color="#BC5724"/>
<stop offset="1" stop-color="#BC5724"/>
</linearGradient>
<linearGradient id="paint73_linear_17_551" x1="764.5" y1="86.8525" x2="764.5" y2="425.471" gradientUnits="userSpaceOnUse">
<stop stop-color="#BC5724"/>
<stop offset="1" stop-color="#BC5724"/>
</linearGradient>
<linearGradient id="paint74_linear_17_551" x1="764.5" y1="80.6484" x2="764.5" y2="424.864" gradientUnits="userSpaceOnUse">
<stop stop-color="#BC5724"/>
<stop offset="1" stop-color="#BC5724"/>
</linearGradient>
<linearGradient id="paint75_linear_17_551" x1="764.5" y1="74.4443" x2="764.5" y2="424.267" gradientUnits="userSpaceOnUse">
<stop stop-color="#BC5724"/>
<stop offset="1" stop-color="#BC5724"/>
</linearGradient>
<linearGradient id="paint76_linear_17_551" x1="764.5" y1="68.2412" x2="764.5" y2="423.682" gradientUnits="userSpaceOnUse">
<stop stop-color="#BC5724"/>
<stop offset="1" stop-color="#BC5724"/>
</linearGradient>
<linearGradient id="paint77_linear_17_551" x1="764.5" y1="62.0371" x2="764.5" y2="423.105" gradientUnits="userSpaceOnUse">
<stop stop-color="#BC5724"/>
<stop offset="1" stop-color="#BC5724"/>
</linearGradient>
<linearGradient id="paint78_linear_17_551" x1="764.5" y1="55.833" x2="764.5" y2="422.538" gradientUnits="userSpaceOnUse">
<stop stop-color="#BC5724"/>
<stop offset="1" stop-color="#BC5724"/>
</linearGradient>
<linearGradient id="paint79_linear_17_551" x1="764.5" y1="49.6299" x2="764.5" y2="421.98" gradientUnits="userSpaceOnUse">
<stop stop-color="#BC5724"/>
<stop offset="1" stop-color="#BC5724"/>
</linearGradient>
<linearGradient id="paint80_linear_17_551" x1="764.5" y1="43.4258" x2="764.5" y2="421.431" gradientUnits="userSpaceOnUse">
<stop stop-color="#BC5724"/>
<stop offset="1" stop-color="#BC5724"/>
</linearGradient>
<linearGradient id="paint81_linear_17_551" x1="764.5" y1="37.2227" x2="764.5" y2="420.892" gradientUnits="userSpaceOnUse">
<stop stop-color="#BC5724"/>
<stop offset="1" stop-color="#BC5724"/>
</linearGradient>
<linearGradient id="paint82_linear_17_551" x1="764.5" y1="31.0186" x2="764.5" y2="420.361" gradientUnits="userSpaceOnUse">
<stop stop-color="#BC5724"/>
<stop offset="1" stop-color="#BC5724"/>
</linearGradient>
<linearGradient id="paint83_linear_17_551" x1="764.5" y1="24.8145" x2="764.5" y2="419.838" gradientUnits="userSpaceOnUse">
<stop stop-color="#BC5724"/>
<stop offset="1" stop-color="#BC5724"/>
</linearGradient>
<linearGradient id="paint84_linear_17_551" x1="764.5" y1="18.6113" x2="764.5" y2="419.324" gradientUnits="userSpaceOnUse">
<stop stop-color="#BC5724"/>
<stop offset="1" stop-color="#BC5724"/>
</linearGradient>
<linearGradient id="paint85_linear_17_551" x1="764.5" y1="12.4072" x2="764.5" y2="418.817" gradientUnits="userSpaceOnUse">
<stop stop-color="#BC5724"/>
<stop offset="1" stop-color="#BC5724"/>
</linearGradient>
<clipPath id="clip0_17_551">
<rect width="1529" height="709" fill="white"/>
</clipPath>
</defs>
</svg>
