<svg width="59" height="50" viewBox="0 0 59 50" fill="none" xmlns="http://www.w3.org/2000/svg">
<path d="M24.9382 13.8078C26.8719 9.72239 27.8388 7.67969 29.5014 7.67969C31.1641 7.67969 32.1309 9.7224 34.0647 13.8078L34.1547 13.9981C35.2472 16.3061 35.7934 17.4601 36.9067 18.1616C38.0199 18.863 39.4813 18.9739 42.404 19.1957L42.9324 19.2358C47.7159 19.5989 50.1076 19.7804 50.6194 21.07C51.1312 22.3595 49.355 23.729 45.8026 26.4679L44.617 27.382C42.8187 28.7685 41.9195 29.4618 41.5005 30.3704C41.4223 30.5399 41.3573 30.7135 41.3059 30.8902C41.0304 31.8374 41.2937 32.8431 41.8203 34.8545L41.9842 35.4806C42.952 39.1771 43.4359 41.0254 42.591 41.8226C42.2753 42.1205 41.865 42.335 41.4092 42.4404C40.1894 42.7225 38.4575 41.5265 34.9939 39.1347C32.7195 37.5641 31.5823 36.7788 30.2767 36.6021C29.7631 36.5326 29.2398 36.5326 28.7262 36.6021C27.4206 36.7788 26.2834 37.5641 24.009 39.1347C20.5453 41.5265 18.8135 42.7225 17.5937 42.4404C17.1379 42.335 16.7275 42.1205 16.4118 41.8226C15.5669 41.0254 16.0508 39.1771 17.0186 35.4806L17.1825 34.8545C17.7091 32.8431 17.9724 31.8374 17.697 30.8902C17.6456 30.7135 17.5806 30.5399 17.5024 30.3704C17.0833 29.4618 16.1842 28.7685 14.3859 27.382L13.2003 26.4679C9.64789 23.729 7.87169 22.3595 8.38346 21.07C8.89523 19.7804 11.287 19.5989 16.0704 19.2358L16.5988 19.1957C19.5216 18.9739 20.9829 18.863 22.0962 18.1616C23.2094 17.4601 23.7557 16.3061 24.8481 13.998L24.9382 13.8078Z" fill="#2A4157" fill-opacity="0.24" stroke="#222222" stroke-width="1.4"/>
</svg>
