<svg width="45" height="38" viewBox="0 0 45 38" fill="none" xmlns="http://www.w3.org/2000/svg">
<path d="M17.9382 7.80781C19.8719 3.72239 20.8388 1.67969 22.5014 1.67969C24.1641 1.67969 25.1309 3.7224 27.0647 7.80781L27.1547 7.99805C28.2472 10.3061 28.7934 11.4601 29.9067 12.1616C31.0199 12.863 32.4813 12.9739 35.4041 13.1957L35.9324 13.2358C40.7159 13.5989 43.1076 13.7804 43.6194 15.07C44.1312 16.3595 42.355 17.729 38.8026 20.4679L37.617 21.382C35.8187 22.7685 34.9195 23.4618 34.5005 24.3704C34.4223 24.5399 34.3573 24.7135 34.3059 24.8902C34.0304 25.8374 34.2937 26.8431 34.8203 28.8545L34.9842 29.4806C35.952 33.1771 36.4359 35.0254 35.591 35.8226C35.2753 36.1205 34.865 36.335 34.4092 36.4404C33.1894 36.7225 31.4575 35.5265 27.9939 33.1347C25.7195 31.5641 24.5823 30.7788 23.2767 30.6021C22.7631 30.5326 22.2398 30.5326 21.7262 30.6021C20.4206 30.7788 19.2834 31.5641 17.009 33.1347C13.5453 35.5265 11.8135 36.7225 10.5937 36.4404C10.1379 36.335 9.72753 36.1205 9.41182 35.8226C8.56694 35.0254 9.05084 33.1771 10.0186 29.4806L10.1825 28.8545C10.7091 26.8431 10.9724 25.8374 10.697 24.8902C10.6456 24.7135 10.5806 24.5399 10.5024 24.3704C10.0833 23.4618 9.18418 22.7685 7.3859 21.382L6.20029 20.4679C2.64789 17.729 0.871687 16.3595 1.38346 15.07C1.89523 13.7804 4.28696 13.5989 9.07042 13.2358L9.59881 13.1957C12.5216 12.9739 13.9829 12.863 15.0962 12.1616C16.2094 11.4601 16.7557 10.3061 17.8481 7.99805L17.9382 7.80781Z" fill="#2A4157" fill-opacity="0.24" stroke="#222222" stroke-width="1.4"/>
</svg>
