<svg width="40" height="34" viewBox="0 0 40 34" fill="none" xmlns="http://www.w3.org/2000/svg">
<path d="M15.9105 7.04151C17.4622 3.70674 18.238 2.03936 19.4985 1.80827C19.8299 1.7475 20.1725 1.7475 20.5039 1.80827C21.7644 2.03936 22.5402 3.70674 24.0919 7.0415C24.9743 8.93792 25.4155 9.88613 26.2411 10.5311C26.4727 10.712 26.724 10.8731 26.9917 11.0121C27.9459 11.5079 29.137 11.5999 31.5193 11.7838C35.5522 12.0952 37.5686 12.2508 38.1844 13.242C38.3119 13.4472 38.3986 13.6695 38.4409 13.8995C38.645 15.01 37.1626 16.1726 34.1979 18.4978L33.3746 19.1435C31.9885 20.2306 31.2955 20.7742 30.8947 21.4525C30.6542 21.8594 30.493 22.2977 30.4174 22.7497C30.2915 23.5032 30.4944 24.2917 30.9003 25.8688L31.0453 26.4322C31.7732 29.2604 32.1372 30.6745 31.6828 31.3696C31.2748 31.9939 30.5231 32.3936 29.6927 32.4278C28.7683 32.4659 27.4657 31.5509 24.8606 29.7209C23.1443 28.5153 22.2861 27.9124 21.3334 27.6769C20.4628 27.4617 19.5396 27.4617 18.669 27.6769C17.7163 27.9124 16.8582 28.5153 15.1418 29.7209C12.5367 31.5509 11.2342 32.4659 10.3097 32.4278C9.47936 32.3936 8.72767 31.9939 8.31958 31.3696C7.86526 30.6745 8.2292 29.2604 8.95709 26.4322L9.10211 25.8688C9.508 24.2917 9.71094 23.5032 9.585 22.7497C9.50946 22.2977 9.34823 21.8594 9.10777 21.4525C8.70691 20.7742 8.01387 20.2306 6.62781 19.1435L5.80451 18.4978C2.83977 16.1726 1.3574 15.01 1.56155 13.8995C1.60383 13.6695 1.69054 13.4472 1.81807 13.242C2.43383 12.2508 4.45025 12.0952 8.48309 11.7838C10.8654 11.5999 12.0566 11.5079 13.0108 11.0121C13.2784 10.8731 13.5298 10.712 13.7613 10.5311C14.5869 9.88613 15.0281 8.93792 15.9105 7.04151Z" fill="#BA5624" stroke="black" stroke-width="2"/>
</svg>
