<svg width="617" height="598" viewBox="0 0 617 598" fill="none" xmlns="http://www.w3.org/2000/svg">
<g clip-path="url(#clip0_21_273)">
<path d="M573.281 158.876V125.3H568.138V158.876C566.662 159.481 565.44 160.589 564.682 162.009C563.923 163.429 563.674 165.073 563.978 166.658C564.282 168.244 565.12 169.673 566.348 170.701C567.576 171.728 569.118 172.29 570.709 172.29C572.301 172.29 573.843 171.728 575.071 170.701C576.299 169.673 577.137 168.244 577.441 166.658C577.745 165.073 577.496 163.429 576.737 162.009C575.978 160.589 574.756 159.481 573.281 158.876Z" fill="#E6E6E6"/>
<path d="M585.283 497.717H550.137V64.3896H536.422V497.717H501.276C497.11 497.717 492.986 498.549 489.138 500.167C485.29 501.785 481.794 504.157 478.848 507.146C475.903 510.136 473.567 513.685 471.973 517.591C470.379 521.497 469.559 525.684 469.559 529.912L617 529.912C617 525.684 616.18 521.497 614.586 517.591C612.992 513.685 610.656 510.136 607.711 507.146C604.765 504.157 601.269 501.785 597.421 500.167C593.573 498.549 589.448 497.717 585.283 497.717Z" fill="#E6E6E6"/>
<path d="M469.629 128.78H616.928L607.921 14.4962C607.591 10.5554 605.821 6.8824 602.959 4.19971C600.096 1.51702 596.348 0.0188733 592.451 0H494.106C490.21 0.0188754 486.461 1.51702 483.599 4.19971C480.736 6.8824 478.966 10.5554 478.636 14.4962L469.629 128.78Z" fill="#BA5624"/>
<path d="M52.375 398.118H501.968V351.525C501.968 225.705 401.124 123.342 277.172 123.342C153.219 123.342 52.375 225.705 52.375 351.525V398.118Z" fill="#3F3D56"/>
<path opacity="0.2" d="M52.375 398.118H501.968V351.525C501.968 225.705 401.124 123.342 277.172 123.342C153.219 123.342 52.375 225.705 52.375 351.525V398.118Z" fill="black"/>
<path d="M110.645 414.245H456.646C456.317 395.768 448.86 378.158 435.877 365.201C422.895 352.245 405.423 344.975 387.216 344.954H180.074C161.867 344.975 144.395 352.245 131.413 365.201C118.43 378.158 110.973 395.768 110.645 414.245Z" fill="#BA5624"/>
<path d="M69.4398 407.077C107.79 407.077 138.88 375.52 138.88 336.591C138.88 297.663 107.79 266.105 69.4398 266.105C31.0892 266.105 0 297.663 0 336.591C0 375.52 31.0892 407.077 69.4398 407.077Z" fill="#3F3D56"/>
<path d="M490.787 407.077C529.138 407.077 560.227 375.52 560.227 336.591C560.227 297.663 529.138 266.105 490.787 266.105C452.437 266.105 421.348 297.663 421.348 336.591C421.348 375.52 452.437 407.077 490.787 407.077Z" fill="#3F3D56"/>
<path d="M438.414 372.432V398.715H117.696V372.432H45.9023V500.535C45.9023 508.384 48.974 515.911 54.4416 521.461C59.9092 527.011 67.3249 530.129 75.0572 530.129H481.052C484.881 530.129 488.672 529.364 492.209 527.876C495.747 526.389 498.961 524.209 501.668 521.461C504.375 518.713 506.523 515.451 507.988 511.86C509.453 508.27 510.207 504.421 510.207 500.535V372.432H438.414Z" fill="#3F3D56"/>
<path opacity="0.2" d="M69.4397 350.928C77.2399 350.928 83.5631 344.51 83.5631 336.592C83.5631 328.674 77.2399 322.256 69.4397 322.256C61.6396 322.256 55.3164 328.674 55.3164 336.592C55.3164 344.51 61.6396 350.928 69.4397 350.928Z" fill="black"/>
<path opacity="0.2" d="M490.787 350.928C498.588 350.928 504.911 344.51 504.911 336.592C504.911 328.674 498.588 322.256 490.787 322.256C482.987 322.256 476.664 328.674 476.664 336.592C476.664 344.51 482.987 350.928 490.787 350.928Z" fill="black"/>
<path d="M302.75 115.29C302.75 115.29 304.138 142.068 313.858 147.705C323.577 153.343 313.858 191.396 313.858 191.396L268.039 192.805L265.262 147.705C265.262 147.705 270.816 129.384 268.039 120.927C265.262 112.471 302.75 115.29 302.75 115.29Z" fill="#FFB8B8"/>
<path d="M354.122 487.364L337.461 507.095L363.842 532.464L377.726 504.277L354.122 487.364Z" fill="#FFB8B8"/>
<path d="M236.104 487.364L252.765 507.095L226.384 532.464L212.5 504.277L236.104 487.364Z" fill="#FFB8B8"/>
<path d="M345.097 300.623C345.097 300.623 445.066 334.448 439.512 366.863C433.958 399.279 390.916 513.438 390.916 513.438C390.916 513.438 367.312 513.438 349.262 488.069L361.759 459.882C361.759 459.882 356.205 444.379 365.924 441.56C375.643 438.741 381.197 389.413 381.197 389.413C381.197 389.413 310.386 383.776 295.113 356.998L267.344 289.348L345.097 300.623Z" fill="#2F2E41"/>
<path d="M245.13 300.623C245.13 300.623 145.162 334.448 150.715 366.863C156.269 399.279 199.311 513.438 199.311 513.438C199.311 513.438 222.915 513.438 240.965 488.069L228.469 459.882C228.469 459.882 234.023 444.379 224.303 441.56C214.584 438.741 209.03 389.413 209.03 389.413C209.03 389.413 279.841 383.776 295.114 356.998L322.883 289.348L245.13 300.623Z" fill="#2F2E41"/>
<path d="M358.982 521.894C358.982 521.894 372.867 509.209 374.255 519.075C375.644 528.941 372.867 568.403 372.867 568.403C372.867 568.403 386.751 598 365.925 598C345.098 598 335.379 575.45 338.156 552.9C340.932 530.35 328.436 521.894 328.436 521.894C328.436 521.894 313.163 490.888 328.436 488.069C343.709 485.25 349.263 492.297 349.263 492.297C349.263 492.297 343.709 517.666 358.982 521.894Z" fill="#2F2E41"/>
<path d="M231.246 521.894C231.246 521.894 217.362 509.209 215.973 519.075C214.585 528.941 217.362 568.403 217.362 568.403C217.362 568.403 203.477 598 224.304 598C245.131 598 254.85 575.45 252.073 552.9C249.296 530.35 261.792 521.894 261.792 521.894C261.792 521.894 277.065 490.888 261.792 488.069C246.519 485.25 240.966 492.297 240.966 492.297C240.966 492.297 246.519 517.666 231.246 521.894Z" fill="#2F2E41"/>
<path d="M281.231 131.497C298.868 131.497 313.166 116.984 313.166 99.0816C313.166 81.179 298.868 66.666 281.231 66.666C263.594 66.666 249.297 81.179 249.297 99.0816C249.297 116.984 263.594 131.497 281.231 131.497Z" fill="#FFB8B8"/>
<path d="M286.088 154.752L266.65 139.249L219.443 161.799L218.054 290.052C218.054 290.052 188.897 304.146 197.227 322.468C197.227 322.468 222.22 328.105 233.327 339.38C244.435 350.655 306.915 335.152 333.296 326.696C359.676 318.239 366.619 308.374 366.619 308.374L340.238 270.321L355.511 173.074L308.309 140.861L286.088 154.752Z" fill="#E6E6E6"/>
<path d="M320.054 77.019C319.359 76.0606 318.723 75.0589 318.151 74.0197C317.16 71.5717 318.724 68.6869 317.263 66.401C315.771 64.0676 311.984 63.5754 309.407 61.9902C305.437 59.5481 304.715 54.7561 300.996 52.065C298.316 50.126 294.495 49.6033 290.914 49.7139C287.333 49.8245 283.8 50.4817 280.217 50.5538C275.381 50.6634 270.583 49.6674 266.178 47.6396L268.821 52.8873C265.884 52.2375 263.079 51.0831 260.525 49.4739C259.356 50.9456 261.495 53.1794 260.169 54.5599C259.625 55.0052 258.982 55.3078 258.296 55.4411C253.199 56.9115 248.399 59.2885 244.12 62.4616C243.129 63.1012 242.31 63.9793 241.734 65.018C241.045 66.5676 241.656 68.2791 241.604 69.9267C241.509 72.9206 239.257 75.5313 237.66 78.2283C236.062 80.9253 235.199 84.4219 237.569 86.711C238.145 87.1759 238.698 87.6706 239.225 88.1931C241.599 91.036 237.396 95.1994 239.422 98.2162C240.301 99.5261 242.104 100.189 243.671 100.963C246.672 102.387 249.198 104.672 250.935 107.535L249.718 98.4607C249.654 98.2365 249.642 98.0002 249.684 97.7707C249.727 97.5412 249.821 97.3248 249.96 97.139C250.55 96.5287 251.786 96.772 252.6 96.3679C253.496 95.9231 253.563 94.9031 253.528 94.0487L253.253 87.4607C253.13 84.4983 253.096 84.1049 255.245 81.7137C256.747 80.0431 259.109 79.0351 261.482 78.2938C266.904 76.5999 272.736 76.0139 278.5 75.4413C285.194 74.7764 292.732 71.4794 297.93 74.9799C302.186 77.8455 303.601 82.5555 305.651 86.7328C307.494 90.4875 312.224 101.543 316.162 95.5583C318.635 91.8002 322.417 81.2033 320.054 77.019Z" fill="#2F2E41"/>
<path d="M286.711 89.6787C286.58 89.6788 286.454 89.7319 286.361 89.8263C286.267 89.9207 286.215 90.0487 286.215 90.1822V103.754C286.215 103.887 286.267 104.015 286.361 104.11C286.454 104.204 286.58 104.257 286.711 104.257H309.727C309.859 104.257 309.985 104.204 310.078 104.11C310.171 104.015 310.223 103.887 310.224 103.754V90.1822C310.223 90.0487 310.171 89.9207 310.078 89.8263C309.985 89.7319 309.859 89.6788 309.727 89.6787L286.711 89.6787Z" fill="#3F3D56"/>
<path d="M289.284 90.876C289.039 90.8763 288.804 90.9752 288.63 91.1512C288.457 91.3271 288.36 91.5657 288.359 91.8145V102.122C288.36 102.371 288.457 102.61 288.63 102.786C288.804 102.962 289.039 103.061 289.284 103.061H307.156C307.401 103.061 307.636 102.962 307.809 102.786C307.983 102.61 308.08 102.371 308.08 102.122V91.8145C308.08 91.5657 307.983 91.3271 307.809 91.1512C307.636 90.9752 307.401 90.8763 307.156 90.876H289.284Z" fill="#F2B858"/>
<path d="M286.969 94.1494H274.98V96.9682H286.969V94.1494Z" fill="#3F3D56"/>
<path d="M254.121 89.6787C253.99 89.6789 253.863 89.732 253.771 89.8264C253.678 89.9208 253.625 90.0487 253.625 90.1822V103.754C253.625 103.887 253.678 104.015 253.771 104.11C253.863 104.204 253.99 104.257 254.121 104.257H277.137C277.269 104.257 277.395 104.204 277.488 104.11C277.581 104.015 277.633 103.887 277.633 103.754V90.1822C277.633 90.0487 277.581 89.9208 277.488 89.8264C277.395 89.732 277.269 89.6789 277.137 89.6787L254.121 89.6787Z" fill="#3F3D56"/>
<path d="M256.691 90.876C256.445 90.8762 256.21 90.9751 256.037 91.1511C255.864 91.327 255.766 91.5656 255.766 91.8145V102.122C255.766 102.371 255.864 102.61 256.037 102.786C256.21 102.962 256.445 103.061 256.691 103.061H274.562C274.807 103.061 275.042 102.962 275.216 102.786C275.389 102.61 275.487 102.371 275.487 102.122V91.8145C275.487 91.5656 275.389 91.327 275.216 91.1511C275.042 90.9751 274.807 90.8762 274.562 90.876H256.691Z" fill="#BA5624"/>
<path d="M241.536 259.083H321.258C324.44 259.083 327.493 260.366 329.744 262.651C331.994 264.936 333.259 268.034 333.259 271.265H229.535C229.535 268.034 230.8 264.936 233.05 262.651C235.301 260.366 238.353 259.083 241.536 259.083Z" fill="#3F3D56"/>
<path d="M326.83 258.213C326.363 258.215 325.9 258.295 325.459 258.45C325.308 257.832 324.939 257.291 324.422 256.931C323.905 256.57 323.276 256.414 322.654 256.492C322.031 256.57 321.459 256.876 321.044 257.354C320.628 257.831 320.4 258.446 320.401 259.083C320.401 259.096 320.404 259.108 320.404 259.121C320.083 259.152 319.766 259.218 319.459 259.32C319.372 258.968 319.214 258.639 318.995 258.353C318.776 258.067 318.501 257.83 318.187 257.657C319.011 257.194 319.663 256.47 320.043 255.596C320.525 255.644 321.011 255.589 321.471 255.434C321.93 255.279 322.353 255.028 322.71 254.696C323.067 254.364 323.352 253.959 323.545 253.508C323.738 253.057 323.835 252.57 323.83 252.079C323.825 251.587 323.718 251.102 323.516 250.655C323.314 250.209 323.021 249.81 322.657 249.486C322.293 249.161 321.866 248.918 321.404 248.773C320.941 248.627 320.453 248.583 319.972 248.641C319.506 248.643 319.043 248.723 318.602 248.878C318.522 248.536 318.376 248.214 318.17 247.93C317.965 247.647 317.706 247.41 317.407 247.231C317.109 247.053 316.778 246.938 316.435 246.893C316.091 246.848 315.742 246.874 315.409 246.969C315.076 247.065 314.765 247.228 314.496 247.449C314.226 247.67 314.004 247.944 313.842 248.254C313.679 248.565 313.581 248.905 313.552 249.256C313.523 249.606 313.564 249.958 313.673 250.292C313.571 250.364 313.475 250.446 313.38 250.527C312.895 250.103 312.265 249.89 311.627 249.934C311.297 248.973 310.645 248.161 309.784 247.639C308.923 247.117 307.909 246.92 306.92 247.08C305.93 247.241 305.027 247.751 304.37 248.519C303.713 249.288 303.344 250.266 303.326 251.284C302.982 251.311 302.643 251.38 302.314 251.488C302.278 251.341 302.228 251.198 302.167 251.059C302.505 250.756 302.777 250.384 302.965 249.968C303.152 249.551 303.252 249.099 303.257 248.641C303.197 247.662 302.757 246.746 302.035 246.094C301.312 245.442 300.365 245.106 299.399 245.161C298.932 245.163 298.469 245.243 298.028 245.398C297.949 245.055 297.802 244.733 297.597 244.45C297.392 244.167 297.132 243.929 296.834 243.751C296.536 243.572 296.205 243.457 295.861 243.412C295.518 243.367 295.169 243.393 294.836 243.489C294.503 243.584 294.192 243.747 293.923 243.968C293.653 244.189 293.431 244.463 293.268 244.774C293.106 245.084 293.008 245.425 292.979 245.775C292.95 246.125 292.991 246.478 293.1 246.812C292.56 247.192 292.114 247.694 291.797 248.278C291.479 248.862 291.298 249.512 291.268 250.178C291.232 250.211 291.19 250.237 291.156 250.272C291.22 250.024 291.254 249.768 291.256 249.511C291.195 248.532 290.756 247.616 290.033 246.964C289.311 246.312 288.363 245.976 287.398 246.031C286.931 246.033 286.468 246.113 286.027 246.268C285.948 245.925 285.801 245.603 285.596 245.32C285.391 245.037 285.131 244.799 284.833 244.621C284.534 244.442 284.204 244.327 283.86 244.282C283.517 244.237 283.168 244.263 282.835 244.359C282.501 244.454 282.191 244.618 281.921 244.838C281.652 245.059 281.43 245.333 281.267 245.644C281.105 245.954 281.007 246.295 280.978 246.645C280.949 246.996 280.99 247.348 281.099 247.682C280.53 248.081 280.065 248.614 279.744 249.236C279.422 249.858 279.254 250.549 279.254 251.252C279.254 251.954 279.422 252.645 279.744 253.267C280.065 253.889 280.53 254.422 281.099 254.821C280.926 255.327 280.926 255.877 281.099 256.383C280.67 256.687 280.298 257.068 280.002 257.507C279.844 256.923 279.488 256.413 278.998 256.067C278.508 255.721 277.914 255.56 277.319 255.612C276.724 255.664 276.165 255.926 275.741 256.353C275.316 256.779 275.052 257.343 274.995 257.946C274.651 257.742 274.28 257.59 273.893 257.494C274.587 257.029 275.134 256.37 275.467 255.596C275.949 255.644 276.436 255.589 276.895 255.434C277.355 255.279 277.777 255.028 278.134 254.696C278.492 254.364 278.776 253.959 278.969 253.508C279.162 253.057 279.259 252.57 279.254 252.079C279.249 251.587 279.142 251.102 278.94 250.655C278.738 250.209 278.446 249.81 278.082 249.486C277.718 249.161 277.291 248.918 276.828 248.773C276.365 248.627 275.878 248.583 275.397 248.641C274.93 248.643 274.467 248.723 274.026 248.878C273.947 248.536 273.8 248.214 273.595 247.93C273.39 247.647 273.13 247.41 272.832 247.231C272.533 247.053 272.202 246.938 271.859 246.893C271.516 246.848 271.167 246.874 270.834 246.969C270.5 247.065 270.19 247.228 269.92 247.449C269.651 247.67 269.428 247.944 269.266 248.254C269.104 248.565 269.006 248.905 268.977 249.256C268.948 249.606 268.989 249.958 269.098 250.292C269.043 250.331 268.993 250.377 268.94 250.418C268.807 250.405 268.677 250.381 268.539 250.381C268.073 250.384 267.609 250.464 267.168 250.618C267.152 250.553 267.126 250.492 267.105 250.428C267.188 250.041 267.181 249.639 267.085 249.255C266.989 248.871 266.807 248.514 266.553 248.213C266.299 247.912 265.979 247.675 265.619 247.521C265.259 247.367 264.869 247.299 264.48 247.324C264.256 246.693 263.892 246.123 263.416 245.659C262.94 245.194 262.364 244.848 261.734 244.647C261.104 244.446 260.437 244.395 259.784 244.499C259.132 244.603 258.512 244.859 257.973 245.247C257.434 245.635 256.991 246.144 256.678 246.734C256.365 247.325 256.191 247.981 256.17 248.651C256.148 249.321 256.279 249.987 256.554 250.597C256.828 251.207 257.237 251.744 257.75 252.167C257.455 252.201 257.164 252.265 256.882 252.359C256.78 251.934 256.575 251.543 256.284 251.221C255.994 250.899 255.628 250.657 255.221 250.517C254.813 250.378 254.377 250.345 253.954 250.422C253.531 250.499 253.134 250.684 252.8 250.959C252.418 250.498 251.94 250.13 251.4 249.879C250.861 249.629 250.273 249.503 249.68 249.511C249.214 249.513 248.751 249.593 248.309 249.748C248.23 249.406 248.084 249.084 247.878 248.801C247.673 248.518 247.413 248.28 247.115 248.101C246.817 247.923 246.486 247.808 246.142 247.763C245.799 247.718 245.45 247.744 245.117 247.839C244.784 247.935 244.473 248.098 244.204 248.319C243.934 248.54 243.712 248.814 243.55 249.124C243.387 249.435 243.289 249.776 243.26 250.126C243.231 250.476 243.272 250.829 243.381 251.162C242.812 251.561 242.347 252.095 242.026 252.717C241.705 253.338 241.537 254.03 241.537 254.732C241.537 254.746 241.541 254.758 241.541 254.771C240.933 254.678 240.311 254.746 239.737 254.969C239.658 254.627 239.511 254.304 239.306 254.021C239.101 253.738 238.841 253.5 238.543 253.322C238.245 253.144 237.914 253.029 237.57 252.984C237.227 252.939 236.878 252.965 236.545 253.06C236.212 253.156 235.901 253.319 235.632 253.54C235.362 253.761 235.14 254.035 234.977 254.345C234.815 254.656 234.717 254.996 234.688 255.347C234.659 255.697 234.7 256.049 234.809 256.383C233.982 256.951 233.378 257.795 233.101 258.769C232.824 259.743 232.892 260.784 233.293 261.712C233.694 262.64 234.403 263.396 235.297 263.848C236.19 264.301 237.211 264.421 238.183 264.188C238.337 265.096 238.773 265.93 239.426 266.569C240.08 267.209 240.917 267.621 241.816 267.745C242.716 267.869 243.63 267.699 244.428 267.259C245.226 266.82 245.865 266.134 246.253 265.301C249.34 265.708 252.474 265.565 255.513 264.877C255.796 265.701 256.318 266.42 257.01 266.938C257.702 267.456 258.532 267.75 259.392 267.781C260.251 267.813 261.1 267.58 261.827 267.114C262.554 266.647 263.125 265.969 263.466 265.167C264.091 265.155 264.705 265 265.264 264.716C265.655 265.418 266.231 265.995 266.928 266.382C267.625 266.769 268.414 266.951 269.208 266.908C270.001 266.864 270.766 266.597 271.418 266.136C272.069 265.674 272.581 265.038 272.895 264.297C273.849 264.114 274.835 264.275 275.684 264.753C276.532 265.231 277.189 265.996 277.54 266.914C278.113 266.117 278.851 265.457 279.701 264.98C280.552 264.502 281.494 264.218 282.464 264.148C283.325 264.392 284.241 264.349 285.076 264.025C285.912 263.701 286.623 263.113 287.105 262.349C286.836 263.408 286.97 264.532 287.481 265.496C287.991 266.459 288.841 267.192 289.861 267.548C290.88 267.904 291.994 267.856 292.981 267.415C293.967 266.974 294.754 266.171 295.183 265.167C295.808 265.155 296.422 265 296.981 264.716C297.372 265.418 297.949 265.995 298.645 266.382C299.342 266.769 300.131 266.951 300.925 266.908C301.718 266.864 302.483 266.597 303.135 266.136C303.786 265.674 304.298 265.038 304.613 264.297C305.237 264.285 305.852 264.13 306.41 263.846C306.712 264.391 307.127 264.863 307.626 265.229C308.125 265.595 308.697 265.846 309.302 265.965C309.907 266.084 310.53 266.068 311.128 265.918C311.726 265.768 312.284 265.487 312.765 265.096C312.913 265.928 313.299 266.698 313.874 267.31C314.449 267.923 315.188 268.351 316 268.542C316.812 268.733 317.661 268.679 318.443 268.386C319.224 268.093 319.905 267.574 320.399 266.893C320.914 267.293 321.511 267.569 322.147 267.699C322.782 267.829 323.438 267.81 324.065 267.644C324.692 267.477 325.274 267.168 325.765 266.738C326.256 266.309 326.645 265.772 326.9 265.167C327.382 265.216 327.869 265.161 328.328 265.006C328.788 264.851 329.21 264.599 329.568 264.267C329.925 263.935 330.209 263.531 330.402 263.08C330.595 262.629 330.692 262.142 330.687 261.65C330.682 261.159 330.575 260.674 330.373 260.227C330.171 259.78 329.879 259.381 329.515 259.057C329.151 258.733 328.724 258.49 328.261 258.344C327.799 258.199 327.311 258.154 326.83 258.213ZM250.213 256.417C250.209 256.438 250.206 256.459 250.202 256.48C250.17 256.479 250.141 256.472 250.109 256.472C249.981 256.476 249.853 256.489 249.727 256.511C249.734 256.496 249.744 256.482 249.751 256.466C249.906 256.458 250.06 256.442 250.213 256.417ZM286.027 254.969C286.015 254.918 285.993 254.872 285.978 254.822C286.633 254.362 287.148 253.726 287.468 252.985C288.032 252.982 288.589 252.859 289.102 252.623C289.616 252.387 290.075 252.044 290.449 251.616C290.416 251.782 290.399 251.952 290.398 252.122C290.402 252.387 290.446 252.651 290.529 252.903C289.793 253.423 289.235 254.165 288.935 255.023C288.003 254.655 286.972 254.635 286.027 254.969ZM311.701 255.293C311.7 255.24 311.706 255.185 311.703 255.132C311.812 255.132 311.921 255.124 312.029 255.11C312.196 255.673 312.473 256.195 312.846 256.645C312.765 256.668 312.68 256.682 312.601 256.709C312.463 256.15 312.146 255.652 311.701 255.293Z" fill="#F9A825"/>
<path d="M238.174 263.434C236.958 263.433 235.755 263.685 234.637 264.172C233.52 264.66 232.513 265.373 231.677 266.269C230.84 267.165 230.192 268.225 229.773 269.383C229.353 270.541 229.17 271.774 229.236 273.007L235.04 354.03C235.163 356.352 236.158 358.538 237.82 360.138C239.483 361.738 241.687 362.629 243.978 362.629H318.822C321.113 362.629 323.317 361.738 324.98 360.138C326.643 358.538 327.638 356.352 327.76 354.03L333.565 273.007C333.63 271.774 333.448 270.541 333.028 269.383C332.608 268.225 331.961 267.165 331.124 266.269C330.288 265.373 329.28 264.66 328.163 264.172C327.046 263.685 325.843 263.433 324.627 263.434H238.174Z" fill="#3F3D56"/>
<path d="M247.538 263.434H242.395V362.629H247.538V263.434Z" fill="#BA5624"/>
<path d="M262.112 263.434H256.969V362.629H262.112V263.434Z" fill="#BA5624"/>
<path d="M276.682 263.434H271.539V362.629H276.682V263.434Z" fill="#BA5624"/>
<path d="M291.257 263.434H286.113V362.629H291.257V263.434Z" fill="#BA5624"/>
<path d="M305.831 263.434H300.688V362.629H305.831V263.434Z" fill="#BA5624"/>
<path d="M320.401 263.434H315.258V362.629H320.401V263.434Z" fill="#BA5624"/>
<path d="M315.245 312.602L298.584 322.467C298.584 322.467 258.319 356.292 286.088 361.93C313.857 367.567 320.799 337.97 320.799 337.97L330.518 326.695L315.245 312.602Z" fill="#FFB8B8"/>
<path d="M236.105 305.555L252.766 315.42C252.766 315.42 293.032 349.245 265.263 354.883C237.493 360.52 230.551 330.923 230.551 330.923L220.832 319.648L236.105 305.555Z" fill="#FFB8B8"/>
<path d="M337.461 171.665L355.511 173.074C355.511 173.074 369.395 185.759 368.007 202.671C368.007 202.671 380.503 239.315 377.726 254.818C377.726 254.818 380.503 280.187 376.338 290.052C372.172 299.918 337.461 337.971 337.461 337.971C337.461 337.971 305.527 312.602 306.915 311.193L348.569 268.912L327.742 240.724L337.461 171.665Z" fill="#E6E6E6"/>
<path d="M219.445 161.799L218.751 162.504C218.751 162.504 187.511 175.893 188.899 192.805C188.899 192.805 176.403 229.449 179.18 244.952C179.18 244.952 176.403 270.321 180.569 280.186C184.734 290.052 219.445 328.105 219.445 328.105C219.445 328.105 251.38 302.736 249.991 301.327L208.338 259.046L229.165 230.858L219.445 161.799Z" fill="#E6E6E6"/>
</g>
<defs>
<clipPath id="clip0_21_273">
<rect width="617" height="598" fill="white"/>
</clipPath>
</defs>
</svg>
