<svg width="836" height="509" viewBox="0 0 836 509" fill="none" xmlns="http://www.w3.org/2000/svg">
<g clip-path="url(#clip0_16_485)" filter="url(#filter0_d_16_485)">
<path d="M62.8964 508.746L62.0165 506.988C73.8132 500.092 88.4947 491.511 96.163 477.429C103.722 463.546 103.892 444.695 96.6056 428.232C90.4049 414.22 79.0145 401.667 63.6662 391.929C60.6387 390.008 57.4607 388.188 54.3873 386.427C46.9583 382.172 39.2765 377.771 32.9423 371.529C24.2183 362.93 17.6174 348.501 22.5373 335.648C24.1553 331.545 26.8052 328.015 30.186 325.459C33.5668 322.902 37.5431 321.422 41.6635 321.185L41.7678 323.181C37.9931 323.397 34.3501 324.753 31.2521 327.094C28.1542 329.435 25.7255 332.668 24.2416 336.425C19.6698 348.369 25.9423 361.923 34.1889 370.051C40.3498 376.123 47.9265 380.463 55.2536 384.661C58.3444 386.431 61.5407 388.262 64.6029 390.205C80.2706 400.145 91.9141 412.996 98.2744 427.369C105.823 444.424 105.625 463.995 97.7573 478.443C89.8277 493.005 74.8951 501.733 62.8964 508.746Z" fill="#F1F1F1"/>
<path d="M53.3902 331.723C62.3301 331.723 69.5773 327.918 69.5773 323.225C69.5773 318.532 62.3301 314.728 53.3902 314.728C44.4503 314.728 37.2031 318.532 37.2031 323.225C37.2031 327.918 44.4503 331.723 53.3902 331.723Z" fill="#F1F1F1"/>
<path d="M66.3394 387.706C75.2793 387.706 82.5265 383.902 82.5265 379.209C82.5265 374.515 75.2793 370.711 66.3394 370.711C57.3995 370.711 50.1523 374.515 50.1523 379.209C50.1523 383.902 57.3995 387.706 66.3394 387.706Z" fill="#F1F1F1"/>
<path d="M36.7418 396.704C45.6817 396.704 52.9289 392.9 52.9289 388.207C52.9289 383.513 45.6817 379.709 36.7418 379.709C27.8019 379.709 20.5547 383.513 20.5547 388.207C20.5547 392.9 27.8019 396.704 36.7418 396.704Z" fill="#F1F1F1"/>
<path d="M82.9879 443.69C91.9277 443.69 99.1749 439.886 99.1749 435.193C99.1749 430.5 91.9277 426.695 82.9879 426.695C74.048 426.695 66.8008 430.5 66.8008 435.193C66.8008 439.886 74.048 443.69 82.9879 443.69Z" fill="#F1F1F1"/>
<path d="M115.363 443.69C124.303 443.69 131.55 439.886 131.55 435.193C131.55 430.5 124.303 426.695 115.363 426.695C106.423 426.695 99.1758 430.5 99.1758 435.193C99.1758 439.886 106.423 443.69 115.363 443.69Z" fill="#F1F1F1"/>
<g filter="url(#filter1_d_16_485)">
<path d="M835.999 15.4248H315.426V282.405H835.999V15.4248Z" fill="#E6E6E6"/>
</g>
<path d="M821.114 38.3193H330.312V261.069H821.114V38.3193Z" fill="white"/>
<path d="M835.78 0H315.207V23.9024H835.78V0Z" fill="#BA5624"/>
<path d="M331.638 15.4864C333.902 15.4864 335.737 13.5029 335.737 11.0562C335.737 8.60946 333.902 6.62598 331.638 6.62598C329.374 6.62598 327.539 8.60946 327.539 11.0562C327.539 13.5029 329.374 15.4864 331.638 15.4864Z" fill="white"/>
<path d="M347.197 15.4864C349.461 15.4864 351.296 13.5029 351.296 11.0562C351.296 8.60946 349.461 6.62598 347.197 6.62598C344.933 6.62598 343.098 8.60946 343.098 11.0562C343.098 13.5029 344.933 15.4864 347.197 15.4864Z" fill="white"/>
<path d="M362.759 15.4864C365.023 15.4864 366.858 13.5029 366.858 11.0562C366.858 8.60946 365.023 6.62598 362.759 6.62598C360.495 6.62598 358.66 8.60946 358.66 11.0562C358.66 13.5029 360.495 15.4864 362.759 15.4864Z" fill="white"/>
<path d="M549.837 91.1816C549.311 91.1816 548.806 91.4078 548.433 91.8103C548.061 92.2128 547.852 92.7587 547.852 93.3279C547.852 93.8971 548.061 94.443 548.433 94.8455C548.806 95.248 549.311 95.4742 549.837 95.4742H658.803C659.33 95.4742 659.835 95.248 660.207 94.8455C660.58 94.443 660.789 93.8971 660.789 93.3279C660.789 92.7587 660.58 92.2128 660.207 91.8103C659.835 91.4078 659.33 91.1816 658.803 91.1816H549.837Z" fill="#E6E6E6"/>
<path d="M549.837 104.061C549.311 104.062 548.807 104.288 548.436 104.691C548.064 105.093 547.855 105.638 547.855 106.207C547.855 106.775 548.064 107.32 548.436 107.723C548.807 108.125 549.311 108.352 549.837 108.353H605.466C605.992 108.352 606.496 108.125 606.868 107.723C607.239 107.32 607.448 106.775 607.448 106.207C607.448 105.638 607.239 105.093 606.868 104.691C606.496 104.288 605.992 104.062 605.466 104.061H549.837Z" fill="#E6E6E6"/>
<path d="M547.095 166.396C546.569 166.396 546.063 166.623 545.691 167.025C545.319 167.428 545.109 167.974 545.109 168.543C545.109 169.112 545.319 169.658 545.691 170.06C546.063 170.463 546.569 170.689 547.095 170.689H751.407C751.933 170.689 752.438 170.463 752.811 170.06C753.183 169.658 753.392 169.112 753.392 168.543C753.392 167.974 753.183 167.428 752.811 167.025C752.438 166.623 751.933 166.396 751.407 166.396H547.095Z" fill="#E6E6E6"/>
<path d="M547.095 179.275C546.569 179.277 546.065 179.503 545.693 179.906C545.322 180.308 545.113 180.853 545.113 181.422C545.113 181.99 545.322 182.535 545.693 182.938C546.065 183.34 546.569 183.567 547.095 183.568H698.07C698.596 183.567 699.1 183.34 699.471 182.938C699.843 182.535 700.051 181.99 700.051 181.422C700.051 180.853 699.843 180.308 699.471 179.906C699.1 179.503 698.596 179.277 698.07 179.275H547.095Z" fill="#E6E6E6"/>
<path d="M547.095 191.862C546.569 191.864 546.065 192.09 545.693 192.493C545.322 192.895 545.113 193.44 545.113 194.009C545.113 194.577 545.322 195.122 545.693 195.525C546.065 195.927 546.569 196.154 547.095 196.155H751.406C751.932 196.154 752.436 195.927 752.808 195.525C753.179 195.122 753.388 194.577 753.388 194.009C753.388 193.44 753.179 192.895 752.808 192.493C752.436 192.09 751.932 191.864 751.406 191.862H547.095Z" fill="#E6E6E6"/>
<path d="M547.095 204.741C546.569 204.742 546.065 204.969 545.693 205.371C545.322 205.774 545.113 206.319 545.113 206.887C545.113 207.456 545.322 208.001 545.693 208.403C546.065 208.806 546.569 209.033 547.095 209.034H698.07C698.596 209.033 699.1 208.806 699.471 208.403C699.843 208.001 700.051 207.456 700.051 206.887C700.051 206.319 699.843 205.774 699.471 205.371C699.1 204.969 698.596 204.742 698.07 204.741H547.095Z" fill="#E6E6E6"/>
<path d="M440.28 175.106C449.83 175.106 457.572 166.739 457.572 156.417C457.572 146.096 449.83 137.729 440.28 137.729C430.73 137.729 422.988 146.096 422.988 156.417C422.988 166.739 430.73 175.106 440.28 175.106Z" fill="#A0616A"/>
<path d="M434.802 141.466C434.802 141.466 442.872 143.802 447.051 144.737C451.23 145.671 450.797 143.024 450.797 143.024C450.797 143.024 456.273 143.802 455.985 143.179C455.697 142.556 458.29 139.286 455.264 135.548C452.238 131.81 453.103 129.007 453.103 129.007H450.509L449.789 127.917H445.754C445.754 127.917 441.293 123.689 433.368 124.935C425.442 126.181 416.07 129.474 415.205 134.613C415.088 135.311 414.933 136.085 414.754 136.903C412.587 146.792 417.192 156.044 421.968 164.798C423.141 166.949 428.819 171.64 428.673 168.422C428.528 165.203 423.563 157.975 427.021 157.507C430.479 157.04 436.387 147.54 434.802 141.466Z" fill="#2F2E41"/>
<path d="M430.471 216.836C427.133 216.547 423.822 215.959 420.574 215.078L420.756 211.351L422.27 181.718L422.284 181.49H452.744L457.524 208.776L458.169 212.457C456.907 212.987 455.632 213.487 454.328 213.927C454.314 213.927 454.314 213.942 454.3 213.942C452.492 214.548 450.656 215.078 448.805 215.517C446.344 216.091 443.854 216.506 441.348 216.76C439.41 216.968 437.464 217.069 435.517 217.063C433.835 217.063 432.139 216.987 430.471 216.836Z" fill="#BA5624"/>
<path d="M410.888 211.564C409.626 210.973 408.407 210.337 407.201 209.67L406.683 209.382C406.332 209.185 405.968 208.973 405.618 208.761C405.14 208.473 404.678 208.185 404.23 207.897C403.795 207.625 403.347 207.337 402.912 207.049C402.884 207.034 402.87 207.019 402.842 207.019C401.328 205.973 399.842 204.898 398.412 203.731C398.174 203.534 397.936 203.337 397.697 203.14L397.445 198.777L397.809 198.535L422.27 181.718L422.606 181.491L422.634 181.476L426.083 181.491V195.368C428.031 198.413 429.349 204.792 430.162 213.139C430.274 214.336 430.372 215.563 430.471 216.836C427.133 216.547 423.822 215.959 420.574 215.079C420.224 215.003 419.887 214.912 419.537 214.806C417.494 214.228 415.482 213.53 413.509 212.715C412.906 212.473 412.318 212.215 411.729 211.958L411.673 211.927C411.42 211.806 411.14 211.685 410.888 211.564Z" fill="#2F2E41"/>
<path d="M405.615 208.761C405.138 208.473 404.675 208.186 404.227 207.898C403.792 207.625 403.344 207.337 402.91 207.049C402.881 207.034 402.868 207.019 402.84 207.019C401.326 205.974 399.84 204.898 398.41 203.731C398.172 203.534 397.933 203.337 397.695 203.141C397.583 203.035 397.471 202.944 397.344 202.838C396.448 202.095 395.578 201.323 394.737 200.504C394.696 200.474 394.667 200.429 394.625 200.398C395.474 199.693 396.427 199.145 397.443 198.777L398.438 199.096L405.531 201.398L405.573 204.504L405.615 208.761Z" fill="#2F2E41"/>
<path d="M465.344 208.806C464.923 209.049 464.503 209.291 464.082 209.518C463.984 209.579 463.9 209.624 463.816 209.67C463.255 209.973 462.709 210.276 462.148 210.564C462.134 210.579 462.106 210.579 462.106 210.594C462.078 210.609 462.036 210.624 462.008 210.639C460.746 211.291 459.47 211.897 458.167 212.457C456.905 212.988 455.629 213.488 454.326 213.927C454.312 213.927 454.312 213.942 454.298 213.942C452.49 214.548 450.653 215.078 448.803 215.518C448.782 214.273 448.933 213.032 449.252 211.836L449.265 211.624L450.471 190.535L448.859 181.49L453.485 180.748L478.927 195.55C478.927 195.55 476.123 198.58 464.615 205.034C463.597 205.604 465.091 207.503 465.344 208.806Z" fill="#2F2E41"/>
<path d="M441.038 213.124C439.216 213.306 437.365 213.397 435.515 213.397C433.721 213.397 431.941 213.321 430.16 213.139C430.273 214.336 430.37 215.563 430.469 216.836C432.137 216.988 433.833 217.063 435.515 217.063C437.463 217.069 439.409 216.968 441.346 216.76C443.853 216.507 446.343 216.092 448.803 215.518C448.783 214.274 448.934 213.033 449.252 211.837L449.266 211.624C446.56 212.336 443.81 212.837 441.038 213.124ZM494.01 128.102C491.048 118.906 486.265 110.518 479.996 103.525C473.726 96.5314 466.121 91.1002 457.71 87.6099C449.299 84.1196 440.285 82.6542 431.296 83.3159C422.308 83.9776 413.56 86.7505 405.665 91.4413C397.77 96.132 390.916 102.628 385.582 110.475C380.248 118.323 376.562 127.334 374.781 136.879C373 146.425 373.167 156.275 375.27 165.744C377.373 175.212 381.362 184.071 386.959 191.702C387.519 192.46 388.094 193.217 388.683 193.944C388.739 194.005 388.767 194.05 388.809 194.096C390.256 195.9 391.796 197.614 393.42 199.232C393.813 199.625 394.219 200.019 394.626 200.398C394.668 200.428 394.696 200.474 394.738 200.504C395.579 201.322 396.449 202.095 397.345 202.837C397.472 202.943 397.584 203.034 397.696 203.14C397.934 203.337 398.173 203.534 398.411 203.731C399.841 204.898 401.327 205.973 402.841 207.019C402.869 207.019 402.882 207.034 402.91 207.049C403.345 207.337 403.793 207.625 404.228 207.897C404.677 208.185 405.14 208.473 405.616 208.761C405.966 208.973 406.331 209.185 406.681 209.382L407.2 209.67C408.405 210.337 409.625 210.973 410.886 211.564C411.139 211.685 411.419 211.806 411.671 211.927L411.727 211.958C412.316 212.215 412.905 212.473 413.508 212.715C415.48 213.53 417.492 214.228 419.535 214.806C419.885 214.912 420.222 215.003 420.573 215.079C423.821 215.96 427.131 216.547 430.469 216.836C432.137 216.988 433.833 217.063 435.515 217.063C437.463 217.069 439.409 216.968 441.346 216.76C443.853 216.507 446.343 216.092 448.803 215.518C450.654 215.079 452.49 214.548 454.299 213.942C454.312 213.942 454.312 213.927 454.327 213.927C455.63 213.488 456.906 212.988 458.167 212.458C459.471 211.897 460.747 211.291 462.008 210.64C462.036 210.625 462.078 210.609 462.106 210.594C462.106 210.579 462.134 210.579 462.149 210.564C462.709 210.276 463.255 209.973 463.817 209.67C463.901 209.625 463.984 209.579 464.083 209.519C464.503 209.291 464.923 209.049 465.344 208.807C465.372 208.791 465.386 208.776 465.414 208.761C466.522 208.095 467.615 207.398 468.695 206.655C468.989 206.458 469.283 206.261 469.578 206.034C470.012 205.746 470.432 205.428 470.839 205.11C471.386 204.701 471.932 204.277 472.465 203.837C472.642 203.714 472.811 203.578 472.97 203.428C474.274 202.368 475.535 201.247 476.74 200.065C485.882 191.261 492.402 179.725 495.476 166.915C498.55 154.105 498.04 140.598 494.01 128.102ZM475.689 196.156C474.172 197.699 472.581 199.156 470.923 200.519C470.559 200.822 470.18 201.125 469.802 201.398C469.437 201.701 469.073 201.989 468.695 202.262C468.372 202.504 468.05 202.746 467.713 202.974C467.685 203.004 467.643 203.019 467.615 203.049C467.377 203.231 467.125 203.398 466.886 203.565C466.143 204.065 465.372 204.564 464.615 205.034C464.433 205.14 464.265 205.261 464.083 205.367C463.984 205.428 463.887 205.489 463.774 205.549C463.354 205.807 462.933 206.034 462.513 206.276C462.457 206.322 462.387 206.337 462.331 206.382C462.31 206.386 462.29 206.397 462.275 206.413C461.98 206.579 461.686 206.731 461.392 206.882C461.139 207.019 460.901 207.155 460.648 207.276C459.625 207.807 458.574 208.306 457.523 208.776C456.415 209.261 455.294 209.7 454.158 210.109C453.878 210.215 453.584 210.337 453.289 210.428C451.957 210.882 450.626 211.291 449.266 211.624C446.56 212.336 443.81 212.837 441.038 213.124C439.216 213.306 437.365 213.397 435.515 213.397C433.721 213.397 431.941 213.321 430.16 213.139C426.985 212.825 423.839 212.227 420.755 211.352C420.642 211.321 420.517 211.291 420.404 211.261C417.874 210.548 415.396 209.636 412.989 208.534C412.863 208.473 412.723 208.428 412.61 208.367C412.47 208.306 412.344 208.261 412.232 208.2C412.092 208.14 411.966 208.079 411.84 208.019C410.788 207.519 409.765 206.973 408.742 206.413L408.265 206.14C407.354 205.625 406.457 205.095 405.574 204.504C405.266 204.322 404.943 204.11 404.635 203.898C404.284 203.671 403.934 203.428 403.597 203.186C403.513 203.125 403.429 203.065 403.345 203.004C402.56 202.428 401.761 201.853 401.004 201.231C400.472 200.807 399.953 200.398 399.434 199.959C399.097 199.686 398.761 199.398 398.439 199.095C398.229 198.929 398.019 198.732 397.808 198.535C397.528 198.277 397.247 198.02 396.967 197.747C396.533 197.368 396.126 196.944 395.733 196.55C394.155 194.978 392.662 193.309 391.262 191.55C390.785 190.975 390.336 190.399 389.903 189.793C389.801 189.674 389.708 189.547 389.622 189.414C382.565 179.786 378.253 168.146 377.213 155.914C376.173 143.682 378.448 131.387 383.763 120.53C389.078 109.672 397.201 100.721 407.143 94.7683C417.084 88.8156 428.413 86.1186 439.749 87.0066C451.084 87.8945 461.935 92.3289 470.979 99.7687C480.022 107.208 486.866 117.332 490.677 128.905C494.487 140.477 495.099 152.998 492.438 164.94C489.777 176.882 483.957 187.728 475.689 196.156Z" fill="#3F3D56"/>
<path d="M151.174 496.557L162.514 496.556L167.908 449.281L151.172 449.282L151.174 496.557Z" fill="#A0616A"/>
<g filter="url(#filter2_d_16_485)">
<path d="M148.281 492.555L170.614 492.554C174.388 492.554 178.009 494.175 180.678 497.059C183.347 499.944 184.847 503.856 184.847 507.936V508.435L148.282 508.437L148.281 492.555Z" fill="#2F2E41"/>
<path d="M148.782 507.937L148.781 493.055L170.614 493.054C170.614 493.054 170.614 493.054 170.614 493.054C174.243 493.054 177.732 494.612 180.311 497.399C182.891 500.187 184.347 503.977 184.347 507.935L148.782 507.937Z" stroke="black"/>
</g>
<path d="M193.725 496.557L205.065 496.556L210.459 449.281L193.723 449.282L193.725 496.557Z" fill="#A0616A"/>
<g filter="url(#filter3_d_16_485)">
<path d="M190.832 492.555L213.165 492.554H213.166C216.94 492.554 220.56 494.175 223.229 497.059C225.898 499.944 227.397 503.856 227.398 507.936V508.435L190.833 508.437L190.832 492.555Z" fill="#2F2E41"/>
</g>
<path d="M116.767 309.751C117.695 308.677 118.394 307.396 118.814 305.999C119.235 304.601 119.367 303.121 119.201 301.662C119.034 300.203 118.574 298.802 117.853 297.556C117.132 296.31 116.166 295.251 115.025 294.452L122.904 259.757L106.724 265.988L101.722 297.98C100.608 300.141 100.265 302.669 100.76 305.085C101.255 307.501 102.552 309.637 104.407 311.088C106.261 312.539 108.544 313.204 110.822 312.958C113.1 312.711 115.215 311.57 116.767 309.751Z" fill="#9E616A"/>
<path d="M237.145 306.752C236.217 305.678 235.518 304.397 235.097 302.999C234.677 301.602 234.545 300.122 234.711 298.663C234.877 297.204 235.337 295.803 236.059 294.557C236.78 293.311 237.746 292.252 238.887 291.453L231.008 256.758L247.188 262.989L252.189 294.981C253.304 297.142 253.646 299.67 253.152 302.086C252.657 304.502 251.359 306.638 249.505 308.089C247.65 309.54 245.368 310.205 243.09 309.959C240.812 309.712 238.697 308.571 237.145 306.752Z" fill="#9E616A"/>
<g filter="url(#filter4_d_16_485)">
<path d="M131.688 285.432L147.406 484.44L170.404 482.174L179.609 328.368L187.802 389.268L189.443 486.007L210.255 484.507L221.812 380.437L218.977 279.649L139.968 271.001L131.688 285.432Z" fill="#2F2E41"/>
</g>
<g filter="url(#filter5_d_16_485)">
<path d="M174.925 104.338C188.098 104.338 198.777 92.7966 198.777 78.5596C198.777 64.3226 188.098 52.7812 174.925 52.7812C161.753 52.7812 151.074 64.3226 151.074 78.5596C151.074 92.7966 161.753 104.338 174.925 104.338Z" fill="#A0616A"/>
</g>
<g filter="url(#filter6_d_16_485)">
<path d="M167.37 57.9374C167.37 57.9374 178.501 61.1597 184.265 62.4486C190.029 63.7376 189.433 60.0856 189.433 60.0856C189.433 60.0856 196.986 61.1597 196.588 60.3004C196.191 59.4411 199.768 54.9299 195.594 49.7742C191.42 44.6185 192.613 40.7518 192.613 40.7518H189.035L188.041 39.2481H182.476C182.476 39.2481 176.323 33.4167 165.391 35.1352C154.46 36.8538 141.532 41.3963 140.339 48.4853C140.177 49.4469 139.964 50.5151 139.717 51.6434C136.728 65.2832 143.079 78.0452 149.667 90.1195C151.286 93.0869 159.117 99.5576 158.917 95.1181C158.716 90.6786 151.867 80.7083 156.637 80.0639C161.408 79.4194 169.557 66.3154 167.37 57.9374Z" fill="#2F2E41"/>
</g>
<path d="M150.105 113.145H192.11L221.811 282.671C221.811 282.671 195.917 285.064 181.117 291.062C166.318 297.061 141.715 277.361 141.715 277.361L150.105 113.145Z" fill="#BA5624"/>
<path d="M155.348 132.289V113.145L150.592 113.113L115.844 136.991L123.384 267.817C123.384 267.817 132.308 311.462 145.844 311.01C159.38 310.557 169.816 154.964 155.348 132.289Z" fill="#2F2E41"/>
<path d="M127.005 140.605L115.843 136.991C115.843 136.991 107.58 139.605 107.58 148.603C107.58 157.6 100.461 285.432 100.461 285.432L123.077 287.592L127.93 222.582L127.005 140.605Z" fill="#2F2E41"/>
<path d="M188.98 125.609L186.755 113.144L193.142 112.113L216.267 122.11C216.267 122.11 237.079 286.564 227.829 291.562C218.579 296.561 212.334 292.688 212.334 292.688C212.334 292.688 181.91 171.396 187.295 155.001L188.98 125.609Z" fill="#2F2E41"/>
<g filter="url(#filter7_d_16_485)">
<path d="M200.078 124.609L204.025 122.753C204.025 122.753 215.608 116.549 222.18 129.077C228.752 141.605 251.877 281.565 251.877 281.565L232.85 285.432L218.625 235.062L200.078 124.609Z" fill="#2F2E41"/>
</g>
<path d="M353.341 509H0.924976C0.679657 509 0.444385 508.895 0.270919 508.708C0.0974519 508.52 0 508.266 0 508.001C0 507.736 0.0974519 507.481 0.270919 507.294C0.444385 507.106 0.679657 507.001 0.924976 507.001H353.341C353.586 507.001 353.822 507.106 353.995 507.294C354.168 507.481 354.266 507.736 354.266 508.001C354.266 508.266 354.168 508.52 353.995 508.708C353.822 508.895 353.586 509 353.341 509Z" fill="#CACACA"/>
</g>
<defs>
<filter id="filter0_d_16_485" x="0" y="0" width="836" height="509" filterUnits="userSpaceOnUse" color-interpolation-filters="sRGB">
<feFlood flood-opacity="0" result="BackgroundImageFix"/>
<feColorMatrix in="SourceAlpha" type="matrix" values="0 0 0 0 0 0 0 0 0 0 0 0 0 0 0 0 0 0 127 0" result="hardAlpha"/>
<feOffset/>
<feComposite in2="hardAlpha" operator="out"/>
<feColorMatrix type="matrix" values="0 0 0 0 0 0 0 0 0 0 0 0 0 0 0 0 0 0 0.25 0"/>
<feBlend mode="normal" in2="BackgroundImageFix" result="effect1_dropShadow_16_485"/>
<feBlend mode="normal" in="SourceGraphic" in2="effect1_dropShadow_16_485" result="shape"/>
</filter>
<filter id="filter1_d_16_485" x="315.426" y="15.4248" width="520.574" height="266.98" filterUnits="userSpaceOnUse" color-interpolation-filters="sRGB">
<feFlood flood-opacity="0" result="BackgroundImageFix"/>
<feColorMatrix in="SourceAlpha" type="matrix" values="0 0 0 0 0 0 0 0 0 0 0 0 0 0 0 0 0 0 127 0" result="hardAlpha"/>
<feOffset/>
<feComposite in2="hardAlpha" operator="out"/>
<feColorMatrix type="matrix" values="0 0 0 0 0 0 0 0 0 0 0 0 0 0 0 0 0 0 0.25 0"/>
<feBlend mode="normal" in2="BackgroundImageFix" result="effect1_dropShadow_16_485"/>
<feBlend mode="normal" in="SourceGraphic" in2="effect1_dropShadow_16_485" result="shape"/>
</filter>
<filter id="filter2_d_16_485" x="148.281" y="492.554" width="76.5664" height="55.8828" filterUnits="userSpaceOnUse" color-interpolation-filters="sRGB">
<feFlood flood-opacity="0" result="BackgroundImageFix"/>
<feColorMatrix in="SourceAlpha" type="matrix" values="0 0 0 0 0 0 0 0 0 0 0 0 0 0 0 0 0 0 127 0" result="hardAlpha"/>
<feOffset dx="20" dy="20"/>
<feGaussianBlur stdDeviation="10"/>
<feComposite in2="hardAlpha" operator="out"/>
<feColorMatrix type="matrix" values="0 0 0 0 0 0 0 0 0 0 0 0 0 0 0 0 0 0 0.25 0"/>
<feBlend mode="normal" in2="BackgroundImageFix" result="effect1_dropShadow_16_485"/>
<feBlend mode="normal" in="SourceGraphic" in2="effect1_dropShadow_16_485" result="shape"/>
</filter>
<filter id="filter3_d_16_485" x="190.832" y="492.554" width="76.5664" height="55.8828" filterUnits="userSpaceOnUse" color-interpolation-filters="sRGB">
<feFlood flood-opacity="0" result="BackgroundImageFix"/>
<feColorMatrix in="SourceAlpha" type="matrix" values="0 0 0 0 0 0 0 0 0 0 0 0 0 0 0 0 0 0 127 0" result="hardAlpha"/>
<feOffset dx="20" dy="20"/>
<feGaussianBlur stdDeviation="10"/>
<feComposite in2="hardAlpha" operator="out"/>
<feColorMatrix type="matrix" values="0 0 0 0 0 0 0 0 0 0 0 0 0 0 0 0 0 0 0.25 0"/>
<feBlend mode="normal" in2="BackgroundImageFix" result="effect1_dropShadow_16_485"/>
<feBlend mode="normal" in="SourceGraphic" in2="effect1_dropShadow_16_485" result="shape"/>
</filter>
<filter id="filter4_d_16_485" x="131.688" y="271.001" width="90.125" height="215.006" filterUnits="userSpaceOnUse" color-interpolation-filters="sRGB">
<feFlood flood-opacity="0" result="BackgroundImageFix"/>
<feColorMatrix in="SourceAlpha" type="matrix" values="0 0 0 0 0 0 0 0 0 0 0 0 0 0 0 0 0 0 127 0" result="hardAlpha"/>
<feOffset/>
<feComposite in2="hardAlpha" operator="out"/>
<feColorMatrix type="matrix" values="0 0 0 0 0 0 0 0 0 0 0 0 0 0 0 0 0 0 0.25 0"/>
<feBlend mode="normal" in2="BackgroundImageFix" result="effect1_dropShadow_16_485"/>
<feBlend mode="normal" in="SourceGraphic" in2="effect1_dropShadow_16_485" result="shape"/>
</filter>
<filter id="filter5_d_16_485" x="151.074" y="52.7812" width="47.7031" height="51.5566" filterUnits="userSpaceOnUse" color-interpolation-filters="sRGB">
<feFlood flood-opacity="0" result="BackgroundImageFix"/>
<feColorMatrix in="SourceAlpha" type="matrix" values="0 0 0 0 0 0 0 0 0 0 0 0 0 0 0 0 0 0 127 0" result="hardAlpha"/>
<feOffset/>
<feComposite in2="hardAlpha" operator="out"/>
<feColorMatrix type="matrix" values="0 0 0 0 0 0 0 0 0 0 0 0 0 0 0 0 0 0 0.25 0"/>
<feBlend mode="normal" in2="BackgroundImageFix" result="effect1_dropShadow_16_485"/>
<feBlend mode="normal" in="SourceGraphic" in2="effect1_dropShadow_16_485" result="shape"/>
</filter>
<filter id="filter6_d_16_485" x="134.957" y="34.8184" width="66.6797" height="69.8105" filterUnits="userSpaceOnUse" color-interpolation-filters="sRGB">
<feFlood flood-opacity="0" result="BackgroundImageFix"/>
<feColorMatrix in="SourceAlpha" type="matrix" values="0 0 0 0 0 0 0 0 0 0 0 0 0 0 0 0 0 0 127 0" result="hardAlpha"/>
<feOffset dy="4"/>
<feGaussianBlur stdDeviation="2"/>
<feComposite in2="hardAlpha" operator="out"/>
<feColorMatrix type="matrix" values="0 0 0 0 0 0 0 0 0 0 0 0 0 0 0 0 0 0 0.25 0"/>
<feBlend mode="normal" in2="BackgroundImageFix" result="effect1_dropShadow_16_485"/>
<feBlend mode="normal" in="SourceGraphic" in2="effect1_dropShadow_16_485" result="shape"/>
</filter>
<filter id="filter7_d_16_485" x="200.078" y="121.217" width="51.7969" height="164.215" filterUnits="userSpaceOnUse" color-interpolation-filters="sRGB">
<feFlood flood-opacity="0" result="BackgroundImageFix"/>
<feColorMatrix in="SourceAlpha" type="matrix" values="0 0 0 0 0 0 0 0 0 0 0 0 0 0 0 0 0 0 127 0" result="hardAlpha"/>
<feOffset/>
<feComposite in2="hardAlpha" operator="out"/>
<feColorMatrix type="matrix" values="0 0 0 0 0 0 0 0 0 0 0 0 0 0 0 0 0 0 0.25 0"/>
<feBlend mode="normal" in2="BackgroundImageFix" result="effect1_dropShadow_16_485"/>
<feBlend mode="normal" in="SourceGraphic" in2="effect1_dropShadow_16_485" result="shape"/>
</filter>
<clipPath id="clip0_16_485">
<rect width="836" height="509" fill="white"/>
</clipPath>
</defs>
</svg>
