<svg width="25" height="16" viewBox="0 0 25 16" fill="none" xmlns="http://www.w3.org/2000/svg">
<path d="M8.87499 5.73214C8.55452 5.73214 8.24718 5.84503 8.02057 6.04596C7.79396 6.24689 7.66666 6.51941 7.66666 6.80357V8.94643C7.66666 9.23059 7.79396 9.50311 8.02057 9.70404C8.24718 9.90497 8.55452 10.0179 8.87499 10.0179C9.19546 10.0179 9.5028 9.90497 9.72941 9.70404C9.95602 9.50311 10.0833 9.23059 10.0833 8.94643V6.80357C10.0833 6.51941 9.95602 6.24689 9.72941 6.04596C9.5028 5.84503 9.19546 5.73214 8.87499 5.73214ZM23.375 6.80357C23.6955 6.80357 24.0028 6.69069 24.2294 6.48976C24.456 6.28883 24.5833 6.0163 24.5833 5.73214V1.44643C24.5833 1.16227 24.456 0.889746 24.2294 0.688814C24.0028 0.487883 23.6955 0.375 23.375 0.375H1.62499C1.30452 0.375 0.997175 0.487883 0.770569 0.688814C0.543963 0.889746 0.416656 1.16227 0.416656 1.44643V5.73214C0.416656 6.0163 0.543963 6.28883 0.770569 6.48976C0.997175 6.69069 1.30452 6.80357 1.62499 6.80357C1.94546 6.80357 2.2528 6.91645 2.47941 7.11739C2.70602 7.31832 2.83332 7.59084 2.83332 7.875C2.83332 8.15916 2.70602 8.43168 2.47941 8.63261C2.2528 8.83355 1.94546 8.94643 1.62499 8.94643C1.30452 8.94643 0.997175 9.05931 0.770569 9.26024C0.543963 9.46117 0.416656 9.7337 0.416656 10.0179V14.3036C0.416656 14.5877 0.543963 14.8603 0.770569 15.0612C0.997175 15.2621 1.30452 15.375 1.62499 15.375H23.375C23.6955 15.375 24.0028 15.2621 24.2294 15.0612C24.456 14.8603 24.5833 14.5877 24.5833 14.3036V10.0179C24.5833 9.7337 24.456 9.46117 24.2294 9.26024C24.0028 9.05931 23.6955 8.94643 23.375 8.94643C23.0545 8.94643 22.7472 8.83355 22.5206 8.63261C22.294 8.43168 22.1667 8.15916 22.1667 7.875C22.1667 7.59084 22.294 7.31832 22.5206 7.11739C22.7472 6.91645 23.0545 6.80357 23.375 6.80357ZM22.1667 4.85357C21.4668 5.07879 20.8622 5.4896 20.4349 6.03018C20.0076 6.57075 19.7784 7.21487 19.7784 7.875C19.7784 8.53513 20.0076 9.17925 20.4349 9.71982C20.8622 10.2604 21.4668 10.6712 22.1667 10.8964V13.2321H10.0833C10.0833 12.948 9.95602 12.6755 9.72941 12.4745C9.5028 12.2736 9.19546 12.1607 8.87499 12.1607C8.55452 12.1607 8.24718 12.2736 8.02057 12.4745C7.79396 12.6755 7.66666 12.948 7.66666 13.2321H2.83332V10.8964C3.53313 10.6712 4.13777 10.2604 4.56506 9.71982C4.99235 9.17925 5.22157 8.53513 5.22157 7.875C5.22157 7.21487 4.99235 6.57075 4.56506 6.03018C4.13777 5.4896 3.53313 5.07879 2.83332 4.85357V2.51786H7.66666C7.66666 2.80202 7.79396 3.07454 8.02057 3.27547C8.24718 3.4764 8.55452 3.58929 8.87499 3.58929C9.19546 3.58929 9.5028 3.4764 9.72941 3.27547C9.95602 3.07454 10.0833 2.80202 10.0833 2.51786H22.1667V4.85357Z" fill="#BA5624"/>
</svg>
